<svg xmlns="http://www.w3.org/2000/svg" xmlns:xlink="http://www.w3.org/1999/xlink" version="1.1" x="0px" y="0px" viewBox="0 0 100 100" enable-background="new 0 0 100 100" xml:space="preserve"><g><path fill="#000000" d="M97.029,32.892l-10.557-6.095c-0.924-0.532-2.205-0.185-2.73,0.732l-0.331,0.573l-2.196-3.233l-5.117,0.109   L72.8,21.624l-4.311,0.744l-3.291-2.85l-4.316,1.247l-3.292-2.34l-4.32,1.765l-3.292-1.82l-4.348,2.305l-4.44-1.273l-3.22,2.814   l-4.332-0.463l-3.245,3.077l-4.283-0.196l-3.002,3.544l-0.585-1.014c-0.486-0.842-1.658-1.158-2.504-0.672l-9.019,5.207   c-0.423,0.245-0.726,0.641-0.853,1.113c-0.127,0.475-0.063,0.969,0.182,1.391l1.264,2.189l-8.62,4.977   c-0.462,0.267-0.793,0.698-0.933,1.216c-0.139,0.518-0.068,1.058,0.198,1.52l1.742,3.016l2.273,3.938l0,0l2.259,3.914h0.001   l2.258,3.913l0.001-0.001l1.763,3.053l0,0l2.3,3.983l2.219,3.843l2.26,3.914l0,0l2.259,3.913l1.754,3.04   c0.357,0.617,1.022,1,1.738,1c0.35,0,0.695-0.092,0.999-0.268l8.62-4.977l1.178,2.039c0.327,0.565,0.936,0.916,1.591,0.916   c0.32,0,0.636-0.085,0.914-0.244l9.019-5.207c0.429-0.248,0.717-0.646,0.843-1.088c3.232-1.492,6.482-1.494,9.92-0.005   c0.012,0.062,0.016,0.121,0.031,0.183c0.139,0.518,0.469,0.949,0.93,1.215l10.56,6.097c0.304,0.174,0.646,0.267,0.995,0.267   c0.715,0,1.381-0.383,1.736-0.998l25.365-43.936C98.313,34.67,97.984,33.443,97.029,32.892z M48.054,71.387l-0.214-0.371   l-20.852-45.34l3.381,0.154l17.886,45.877c-0.017,0.007-0.033,0.016-0.049,0.021C48.168,71.611,48.117,71.497,48.054,71.387z    M31.071,25.563l2.608-2.473l15.368,48.297c-0.033,0.012-0.066,0.018-0.099,0.029L31.071,25.563z M34.386,22.839l3.479,0.371   l11.961,47.947c-0.02,0.005-0.04,0.012-0.06,0.018L34.386,22.839z M50.447,70.546l-11.86-47.542l2.506-2.19L50.447,70.546z    M41.82,20.622l3.539,1.016l5.95,49.198c-0.015,0.002-0.029,0.005-0.043,0.007L41.82,20.622z M46.104,21.555l3.529-1.871   L52.15,70.74c-0.032,0.003-0.065,0.003-0.1,0.006L46.104,21.555z M57.842,19.832l2.53,1.798L54.41,69.503L57.842,19.832z    M53.575,70.71c-0.001,0-0.003,0-0.005,0l0.041-49.579l3.488-1.425L53.575,70.71z M52.822,69.107l-2.435-49.37l2.474,1.368   L52.822,69.107z M61.113,21.74l3.455-0.999l-9.504,50.116c-0.021-0.004-0.043-0.01-0.065-0.012L61.113,21.74z M65.296,20.926   l2.591,2.244L55.852,70.992c-0.016-0.003-0.031-0.006-0.047-0.008L65.296,20.926z M68.611,23.362l3.43-0.593l-15.357,48.45   c-0.037-0.011-0.072-0.021-0.108-0.029L68.611,23.362z M72.754,23.003l2.65,2.698L57.609,71.51   c-0.067-0.023-0.137-0.059-0.207-0.082L72.754,23.003z M58.551,71.161l17.553-45.183l4.191-0.09L59.966,68.71L58.551,71.161z    M80.95,26.258l1.905,2.808L64.639,60.619L80.95,26.258z M26.294,25.962L43.78,63.984L23.637,29.098L26.294,25.962z M3.104,43.604   c-0.133-0.23-0.168-0.501-0.099-0.761c0.07-0.26,0.235-0.476,0.466-0.608l8.62-4.977l1.49,2.58l-5.657,3.265l0.267,0.462   L4.36,45.778L3.104,43.604z M14.244,40.986l-5.007,2.891l-0.289-0.499l5.007-2.891L14.244,40.986z M4.863,46.65l3.832-2.213   l0.268,0.464l5.656-3.266l1.23,2.131l-5.657,3.266l0.258,0.447l-3.832,2.212L4.863,46.65z M16.512,44.915l-5.007,2.891   l-0.289-0.499l5.007-2.891L16.512,44.915z M7.122,50.563l3.832-2.212l0.277,0.479l5.656-3.266l1.23,2.13L12.46,50.96l0.25,0.433   l-3.833,2.213L7.122,50.563z M18.78,48.843l-5.007,2.892l-0.288-0.5l5.007-2.891L18.78,48.843z M9.381,54.477l3.832-2.213   l0.286,0.494l5.656-3.266l1.23,2.131l-5.657,3.268l0.241,0.416l-3.832,2.213L9.381,54.477z M21.047,52.771l-5.006,2.891   l-0.288-0.498l5.006-2.893L21.047,52.771z M11.641,58.391l3.832-2.214l0.294,0.511l5.656-3.267l1.23,2.13l-5.657,3.268l0.232,0.4   l-3.831,2.213L11.641,58.391z M23.315,56.699l-5.006,2.891l-0.288-0.498l5.006-2.892L23.315,56.699z M13.9,62.303l3.832-2.213   l0.303,0.524l5.656-3.267l1.23,2.133l-5.657,3.265l0.224,0.387l-3.831,2.212L13.9,62.303z M25.584,60.629l-5.007,2.891l-0.289-0.5   l5.008-2.89L25.584,60.629z M16.159,66.216l3.832-2.213l0.312,0.541l5.656-3.267l1.23,2.131l-5.658,3.266l0.215,0.372l-3.831,2.211   L16.159,66.216z M27.852,64.557l-5.006,2.891l-0.289-0.498l5.007-2.891L27.852,64.557z M18.418,70.129l3.832-2.212l0.321,0.556   l5.656-3.267l1.23,2.13L23.8,70.602l0.207,0.356l-3.831,2.213L18.418,70.129z M30.12,68.484l-5.007,2.891l-0.289-0.499l5.007-2.892   L30.12,68.484z M20.678,74.042l3.832-2.212l0.329,0.568l5.656-3.266l1.229,2.131l-5.657,3.268l0.197,0.341l-3.831,2.212   L20.678,74.042z M32.388,72.413l-5.006,2.892l-0.288-0.498l5.006-2.894L32.388,72.413z M25.561,80.497   c-0.462,0.269-1.104,0.092-1.37-0.367l-1.254-2.174l3.832-2.213l0.338,0.584l5.656-3.265l1.418,2.455L25.561,80.497z    M46.882,73.023l-9.019,5.207c-0.386,0.222-0.918,0.074-1.138-0.306L11.193,33.702c-0.11-0.19-0.139-0.414-0.082-0.63   c0.058-0.216,0.196-0.396,0.387-0.507l9.019-5.207c0.125-0.072,0.268-0.111,0.413-0.111c0.299,0,0.577,0.16,0.726,0.417   l25.532,44.223C47.417,72.284,47.28,72.795,46.882,73.023z M96.896,35.124L71.532,79.059c-0.265,0.457-0.906,0.631-1.367,0.366   l-10.558-6.097c-0.23-0.133-0.396-0.35-0.465-0.607c-0.063-0.232-0.027-0.472,0.074-0.686l0.079-0.166l25.312-43.841   c0.178-0.308,0.511-0.498,0.869-0.498c0.174,0,0.346,0.046,0.496,0.133l10.557,6.094C97.008,34.033,97.172,34.647,96.896,35.124z"></path><path fill="#000000" d="M84.492,38.194c0.229,0.132,0.486,0.201,0.748,0.201c0.533,0,1.033-0.287,1.302-0.75   c0.412-0.716,0.166-1.636-0.549-2.051c-0.695-0.401-1.652-0.14-2.05,0.55c-0.2,0.347-0.254,0.751-0.15,1.138   C83.896,37.67,84.145,37.994,84.492,38.194z M84.594,36.52c0.135-0.231,0.383-0.376,0.65-0.376c0.131,0,0.26,0.035,0.373,0.101   c0.357,0.207,0.48,0.668,0.275,1.026c-0.201,0.343-0.677,0.475-1.025,0.274c-0.174-0.101-0.299-0.263-0.35-0.456   C84.465,36.896,84.493,36.693,84.594,36.52z"></path><path fill="#000000" d="M82.241,42.092c0.229,0.132,0.487,0.201,0.75,0.201c0.536,0,1.034-0.288,1.3-0.75   c0.413-0.716,0.167-1.635-0.549-2.05c-0.691-0.398-1.651-0.141-2.051,0.55C81.279,40.759,81.525,41.678,82.241,42.092z    M82.342,40.417c0.135-0.23,0.385-0.375,0.651-0.375c0.131,0,0.26,0.035,0.374,0.101c0.357,0.207,0.48,0.667,0.273,1.026   c-0.197,0.344-0.677,0.474-1.024,0.273C82.259,41.235,82.137,40.775,82.342,40.417z"></path><path fill="#000000" d="M79.991,45.99c0.228,0.132,0.487,0.201,0.749,0.201c0.535,0,1.033-0.287,1.301-0.75   c0.413-0.716,0.166-1.635-0.55-2.049c-0.692-0.401-1.652-0.14-2.05,0.548c-0.2,0.346-0.254,0.75-0.151,1.137   C79.395,45.465,79.643,45.789,79.991,45.99z M80.092,44.315c0.133-0.23,0.383-0.374,0.65-0.374c0.131,0,0.26,0.034,0.374,0.101   c0.358,0.207,0.481,0.667,0.274,1.024c-0.197,0.345-0.678,0.476-1.024,0.274c-0.175-0.101-0.3-0.263-0.351-0.457   C79.964,44.691,79.99,44.489,80.092,44.315z"></path><path fill="#000000" d="M77.74,49.889c0.228,0.132,0.486,0.201,0.748,0.201c0.535,0,1.033-0.288,1.301-0.751   c0.201-0.346,0.255-0.75,0.15-1.137c-0.104-0.389-0.353-0.712-0.699-0.912c-0.695-0.401-1.65-0.141-2.049,0.549   C76.777,48.554,77.023,49.474,77.74,49.889z M77.842,48.214c0.133-0.231,0.383-0.375,0.649-0.375c0.131,0,0.26,0.034,0.374,0.101   c0.174,0.101,0.299,0.262,0.351,0.456c0.052,0.193,0.024,0.395-0.075,0.568c-0.199,0.346-0.679,0.476-1.023,0.276   C77.758,49.032,77.635,48.571,77.842,48.214z"></path><path fill="#000000" d="M75.49,53.786c0.228,0.132,0.486,0.2,0.748,0.2c0.535,0,1.033-0.286,1.302-0.75   c0.413-0.715,0.167-1.635-0.55-2.049c-0.693-0.4-1.652-0.14-2.049,0.549c-0.2,0.347-0.256,0.75-0.151,1.139   S75.143,53.586,75.49,53.786z M75.592,52.111c0.133-0.23,0.383-0.375,0.649-0.375c0.131,0,0.261,0.035,0.375,0.102   c0.356,0.207,0.479,0.667,0.274,1.023c-0.201,0.346-0.678,0.476-1.025,0.274c-0.174-0.101-0.299-0.262-0.352-0.456   C75.463,52.488,75.49,52.286,75.592,52.111z"></path><path fill="#000000" d="M73.238,57.686c0.229,0.131,0.488,0.201,0.75,0.201c0.535,0,1.033-0.287,1.301-0.751   c0.412-0.715,0.166-1.635-0.549-2.05c-0.695-0.4-1.652-0.141-2.053,0.55c-0.199,0.349-0.252,0.753-0.148,1.14   C72.645,57.162,72.893,57.484,73.238,57.686z M73.338,56.011c0.135-0.231,0.385-0.376,0.653-0.376c0.131,0,0.26,0.035,0.372,0.1   c0.359,0.209,0.482,0.67,0.275,1.027c-0.199,0.344-0.677,0.477-1.025,0.274c-0.174-0.101-0.299-0.263-0.35-0.456   C73.211,56.387,73.238,56.186,73.338,56.011z"></path><path fill="#000000" d="M70.986,61.582c0.229,0.133,0.49,0.202,0.752,0.202c0.533,0,1.031-0.287,1.301-0.751   c0.412-0.717,0.165-1.637-0.551-2.049c-0.691-0.399-1.651-0.143-2.051,0.549c-0.199,0.348-0.252,0.752-0.148,1.139   C70.393,61.061,70.643,61.383,70.986,61.582z M71.088,59.908c0.135-0.231,0.385-0.375,0.65-0.375c0.132,0,0.262,0.035,0.375,0.101   c0.357,0.207,0.482,0.667,0.275,1.024c-0.201,0.345-0.671,0.48-1.027,0.273c-0.172-0.1-0.297-0.262-0.348-0.453   C70.962,60.284,70.988,60.082,71.088,59.908z"></path><path fill="#000000" d="M70.787,64.934c0.201-0.347,0.254-0.75,0.15-1.138s-0.353-0.713-0.701-0.913   c-0.692-0.4-1.651-0.14-2.049,0.551c-0.414,0.715-0.168,1.635,0.551,2.049c0.228,0.131,0.486,0.201,0.748,0.201   C70.021,65.684,70.52,65.396,70.787,64.934z M69.111,64.832c-0.357-0.208-0.48-0.667-0.273-1.025   c0.133-0.23,0.383-0.375,0.65-0.375c0.131,0,0.26,0.034,0.373,0.102c0.176,0.101,0.3,0.264,0.353,0.457   c0.052,0.193,0.024,0.395-0.075,0.566C69.938,64.9,69.46,65.032,69.111,64.832z"></path><path fill="#000000" d="M67.986,66.779c-0.691-0.399-1.65-0.141-2.049,0.55c-0.414,0.717-0.168,1.637,0.549,2.051   c0.229,0.132,0.486,0.201,0.748,0.201c0.535,0,1.033-0.288,1.302-0.752c0.2-0.349,0.254-0.752,0.149-1.142   C68.582,67.303,68.334,66.979,67.986,66.779z M67.887,68.455c-0.199,0.345-0.678,0.475-1.025,0.275   c-0.356-0.207-0.479-0.668-0.272-1.026c0.134-0.229,0.384-0.375,0.649-0.375c0.132,0,0.261,0.035,0.375,0.103   c0.174,0.1,0.297,0.26,0.349,0.452C68.014,68.077,67.986,68.279,67.887,68.455z"></path><path fill="#000000" d="M85.275,39.812c-0.412,0.715-0.166,1.635,0.55,2.05c0.229,0.132,0.487,0.201,0.749,0.201   c0.535,0,1.033-0.288,1.302-0.752c0.2-0.346,0.254-0.749,0.149-1.137c-0.104-0.388-0.354-0.712-0.7-0.912   C86.633,38.862,85.676,39.122,85.275,39.812z M86.95,39.911c0.175,0.101,0.299,0.263,0.352,0.457   c0.052,0.193,0.025,0.395-0.073,0.567c-0.201,0.347-0.683,0.476-1.026,0.277c-0.358-0.208-0.481-0.669-0.276-1.026   c0.135-0.231,0.385-0.376,0.652-0.376C86.707,39.811,86.836,39.846,86.95,39.911z"></path><path fill="#000000" d="M84.324,45.96c0.533,0,1.031-0.287,1.302-0.75c0.2-0.347,0.253-0.751,0.149-1.138   c-0.104-0.388-0.354-0.711-0.7-0.911c-0.692-0.4-1.651-0.141-2.05,0.549c-0.2,0.347-0.254,0.751-0.149,1.138   c0.104,0.388,0.353,0.711,0.699,0.911C83.805,45.891,84.063,45.96,84.324,45.96z M83.676,44.085   c0.133-0.231,0.383-0.375,0.65-0.375c0.131,0,0.26,0.034,0.374,0.101c0.174,0.101,0.299,0.262,0.351,0.456   c0.053,0.193,0.025,0.395-0.074,0.567c-0.199,0.346-0.678,0.475-1.025,0.275c-0.174-0.1-0.299-0.262-0.35-0.455   C83.549,44.46,83.575,44.258,83.676,44.085z"></path><path fill="#000000" d="M82.073,49.858c0.534,0,1.032-0.287,1.301-0.75c0.2-0.348,0.253-0.752,0.149-1.138   c-0.104-0.388-0.353-0.711-0.697-0.91c-0.696-0.403-1.653-0.144-2.051,0.548c-0.414,0.716-0.168,1.635,0.55,2.05   C81.553,49.789,81.813,49.858,82.073,49.858z M81.426,47.983c0.133-0.232,0.383-0.376,0.648-0.376c0.131,0,0.261,0.035,0.377,0.103   c0.173,0.1,0.297,0.261,0.349,0.454s0.024,0.396-0.075,0.57c-0.199,0.344-0.677,0.473-1.024,0.274   C81.342,48.802,81.219,48.342,81.426,47.983z"></path><path fill="#000000" d="M79.824,53.757c0.535,0,1.033-0.288,1.299-0.751c0.2-0.348,0.254-0.753,0.148-1.141   c-0.104-0.387-0.352-0.709-0.697-0.908c-0.691-0.398-1.651-0.143-2.051,0.549c-0.412,0.717-0.166,1.637,0.551,2.049   C79.303,53.688,79.563,53.757,79.824,53.757z M79.175,51.881c0.134-0.23,0.384-0.375,0.65-0.375c0.131,0,0.26,0.035,0.375,0.102   c0.173,0.1,0.296,0.261,0.348,0.453c0.054,0.193,0.025,0.396-0.075,0.571c-0.197,0.345-0.676,0.476-1.022,0.272   C79.091,52.699,78.968,52.239,79.175,51.881z"></path><path fill="#000000" d="M77.572,57.654c0.535,0,1.033-0.287,1.301-0.75c0.2-0.348,0.254-0.752,0.148-1.139   c-0.104-0.388-0.353-0.711-0.697-0.91c-0.693-0.4-1.651-0.142-2.049,0.549c-0.201,0.347-0.256,0.75-0.15,1.139   c0.104,0.387,0.352,0.71,0.698,0.911C77.051,57.585,77.311,57.654,77.572,57.654z M76.925,55.779   c0.134-0.231,0.382-0.377,0.649-0.377c0.13,0,0.26,0.035,0.374,0.103c0.174,0.101,0.298,0.263,0.35,0.455   c0.054,0.192,0.025,0.396-0.075,0.569c-0.197,0.345-0.677,0.476-1.023,0.275c-0.174-0.102-0.297-0.264-0.35-0.457   S76.824,55.953,76.925,55.779z"></path><path fill="#000000" d="M76.073,58.753c-0.691-0.399-1.651-0.142-2.05,0.55c-0.412,0.717-0.166,1.637,0.55,2.051   c0.228,0.131,0.485,0.201,0.747,0.201c0.535,0,1.033-0.289,1.303-0.753c0.2-0.347,0.253-0.751,0.148-1.138   C76.668,59.275,76.42,58.953,76.073,58.753z M75.975,60.427c-0.201,0.345-0.682,0.476-1.024,0.277   c-0.358-0.208-0.481-0.669-0.275-1.027c0.134-0.231,0.384-0.375,0.65-0.375c0.131,0,0.26,0.035,0.374,0.101   c0.174,0.102,0.298,0.264,0.35,0.457C76.102,60.052,76.073,60.254,75.975,60.427z"></path><path fill="#000000" d="M74.372,64.7c0.413-0.716,0.167-1.636-0.55-2.05c-0.693-0.398-1.65-0.14-2.049,0.55   c-0.2,0.348-0.254,0.752-0.15,1.139c0.104,0.388,0.352,0.711,0.699,0.91c0.228,0.133,0.486,0.201,0.748,0.201   C73.605,65.45,74.104,65.163,74.372,64.7z M72.697,64.602c-0.174-0.102-0.299-0.263-0.35-0.455   c-0.053-0.194-0.024-0.396,0.074-0.57c0.135-0.23,0.385-0.375,0.651-0.375c0.13,0,0.26,0.035,0.374,0.101   c0.357,0.207,0.479,0.667,0.273,1.024C73.523,64.669,73.047,64.802,72.697,64.602z"></path><path fill="#000000" d="M71.572,66.549c-0.695-0.4-1.649-0.14-2.049,0.551c-0.201,0.348-0.256,0.752-0.151,1.139   s0.353,0.711,0.698,0.91c0.229,0.133,0.488,0.201,0.75,0.201c0.535,0,1.033-0.287,1.301-0.75   C72.533,67.884,72.287,66.964,71.572,66.549z M71.471,68.227c-0.197,0.344-0.676,0.473-1.023,0.272   c-0.174-0.101-0.299-0.263-0.35-0.455c-0.053-0.192-0.025-0.396,0.074-0.569c0.135-0.231,0.385-0.377,0.651-0.377   c0.131,0,0.26,0.035,0.372,0.102C71.555,67.404,71.678,67.866,71.471,68.227z"></path><path fill="#000000" d="M88.6,42.298c-0.691-0.399-1.651-0.141-2.051,0.55c-0.412,0.715-0.166,1.635,0.551,2.049   c0.228,0.132,0.486,0.201,0.748,0.201c0.536,0,1.034-0.288,1.301-0.75c0.201-0.348,0.254-0.752,0.149-1.139   C89.193,42.821,88.945,42.498,88.6,42.298z M88.498,43.973c-0.197,0.344-0.675,0.476-1.023,0.274   c-0.357-0.207-0.481-0.667-0.274-1.025c0.133-0.231,0.383-0.375,0.649-0.375c0.131,0,0.26,0.035,0.375,0.101   c0.174,0.101,0.297,0.262,0.35,0.456C88.625,43.597,88.6,43.799,88.498,43.973z"></path><path fill="#000000" d="M86.35,46.197c-0.693-0.4-1.652-0.142-2.05,0.549c-0.2,0.347-0.255,0.752-0.149,1.139   c0.104,0.387,0.352,0.71,0.697,0.91c0.229,0.131,0.487,0.201,0.75,0.201c0.534,0,1.032-0.288,1.301-0.751   C87.311,47.528,87.063,46.609,86.35,46.197z M86.247,47.871c-0.198,0.345-0.677,0.476-1.024,0.274   c-0.174-0.101-0.297-0.262-0.349-0.455c-0.054-0.193-0.024-0.396,0.075-0.57c0.133-0.231,0.382-0.375,0.648-0.375   c0.131,0,0.262,0.035,0.375,0.102C86.331,47.053,86.454,47.513,86.247,47.871z"></path><path fill="#000000" d="M84.098,50.094c-0.691-0.4-1.649-0.141-2.048,0.549c-0.2,0.349-0.255,0.752-0.151,1.14   c0.104,0.387,0.353,0.711,0.699,0.911c0.229,0.132,0.487,0.201,0.75,0.201c0.535,0,1.032-0.287,1.299-0.75   c0.201-0.348,0.254-0.752,0.15-1.14C84.693,50.618,84.445,50.294,84.098,50.094z M83.996,51.77   c-0.198,0.345-0.676,0.476-1.023,0.273c-0.174-0.102-0.298-0.264-0.35-0.455c-0.053-0.193-0.025-0.396,0.076-0.57   c0.133-0.23,0.382-0.375,0.648-0.375c0.131,0,0.26,0.035,0.375,0.102c0.174,0.102,0.297,0.263,0.35,0.456   C84.124,51.393,84.098,51.596,83.996,51.77z"></path><path fill="#000000" d="M81.848,53.993c-0.693-0.401-1.648-0.144-2.052,0.549c-0.2,0.347-0.253,0.751-0.147,1.138   c0.104,0.389,0.353,0.711,0.699,0.911c0.229,0.132,0.486,0.201,0.748,0.201c0.535,0,1.034-0.287,1.303-0.751   C82.811,55.325,82.563,54.406,81.848,53.993z M81.747,55.667c-0.197,0.343-0.674,0.478-1.024,0.272   c-0.175-0.1-0.3-0.262-0.352-0.455c-0.053-0.192-0.025-0.396,0.074-0.566c0.135-0.232,0.385-0.376,0.652-0.376   c0.131,0,0.26,0.034,0.375,0.101C81.83,54.85,81.954,55.309,81.747,55.667z"></path><path fill="#000000" d="M79.598,57.891c-0.695-0.399-1.652-0.141-2.051,0.551c-0.201,0.346-0.254,0.75-0.15,1.137   c0.104,0.388,0.354,0.712,0.701,0.912c0.228,0.132,0.485,0.201,0.748,0.201c0.535,0,1.033-0.287,1.301-0.75   C80.559,59.225,80.313,58.307,79.598,57.891z M79.497,59.564c-0.199,0.346-0.677,0.477-1.024,0.274   c-0.176-0.101-0.3-0.263-0.353-0.457c-0.052-0.192-0.024-0.394,0.075-0.567c0.135-0.231,0.385-0.375,0.652-0.375   c0.131,0,0.26,0.033,0.373,0.1C79.579,58.747,79.702,59.208,79.497,59.564z"></path><path fill="#000000" d="M77.346,61.789c-0.695-0.4-1.648-0.143-2.05,0.549c-0.412,0.717-0.166,1.635,0.55,2.049   c0.229,0.133,0.487,0.201,0.75,0.201c0.535,0,1.033-0.288,1.299-0.749c0.201-0.348,0.256-0.752,0.151-1.139   C77.941,62.313,77.693,61.989,77.346,61.789z M77.245,63.464c-0.198,0.345-0.681,0.474-1.024,0.272   c-0.357-0.207-0.479-0.666-0.275-1.023c0.136-0.23,0.385-0.375,0.652-0.375c0.131,0,0.26,0.034,0.373,0.102   c0.174,0.1,0.299,0.262,0.352,0.455C77.374,63.087,77.346,63.289,77.245,63.464z"></path><path fill="#000000" d="M75.096,65.688c-0.689-0.403-1.652-0.143-2.051,0.549c-0.413,0.716-0.167,1.635,0.549,2.05   c0.229,0.131,0.488,0.2,0.75,0.2c0.534,0,1.033-0.287,1.303-0.75c0.199-0.348,0.252-0.752,0.148-1.139   C75.689,66.211,75.441,65.889,75.096,65.688z M74.996,67.359c-0.2,0.347-0.68,0.478-1.027,0.275   c-0.357-0.207-0.48-0.666-0.273-1.025c0.134-0.229,0.384-0.375,0.65-0.375c0.131,0,0.26,0.035,0.375,0.103   c0.174,0.101,0.299,0.263,0.35,0.455C75.123,66.984,75.096,67.188,74.996,67.359z"></path></g></svg>