<svg xmlns="http://www.w3.org/2000/svg" xmlns:xlink="http://www.w3.org/1999/xlink" version="1.1" x="0px" y="0px" viewBox="0 0 90 90" enable-background="new 0 0 90 90" xml:space="preserve"><g><path fill="#000000" d="M85.169,35.048v-4.176c0-2.298-1.689-4.167-3.766-4.167H9.597c-2.077,0-3.766,1.869-3.766,4.167v4.176   c0,2.298,1.689,4.167,3.766,4.167h4.07l-2.016,8.03H7.329c-0.276,0-0.5,0.224-0.5,0.5s0.224,0.5,0.5,0.5H11.4l-3.404,13.56   c-0.067,0.269,0.095,0.54,0.363,0.607c0.041,0.01,0.082,0.015,0.122,0.015c0.224,0,0.427-0.151,0.484-0.378l1.8-7.169l10.745-6.635   h47.979l10.745,6.634l1.8,7.17c0.058,0.227,0.261,0.378,0.485,0.378c0.04,0,0.081-0.005,0.122-0.015   c0.268-0.067,0.43-0.339,0.363-0.607l-1.848-7.358v-0.002l-1.557-6.199h4.071c0.276,0,0.5-0.224,0.5-0.5s-0.224-0.5-0.5-0.5H79.35   l-2.016-8.03h4.069C83.479,39.215,85.169,37.346,85.169,35.048z M11.115,53.488l1.316-5.243h7.175L11.115,53.488z M79.885,53.487   l-8.49-5.242h7.175L79.885,53.487z M78.318,47.245H12.682l2.016-8.03h61.604L78.318,47.245z M77.083,38.215h-1.031H14.949h-1.031   H9.597c-1.525,0-2.766-1.421-2.766-3.167v-4.176c0-1.746,1.241-3.167,2.766-3.167h71.806c1.525,0,2.766,1.421,2.766,3.167v4.176   c0,1.746-1.24,3.167-2.766,3.167H77.083z"></path></g></svg>