<svg xmlns="http://www.w3.org/2000/svg" xmlns:xlink="http://www.w3.org/1999/xlink" version="1.1" x="0px" y="0px" viewBox="0 0 90 90" enable-background="new 0 0 90 90" xml:space="preserve"><g><g><path fill="none" stroke="#000000" stroke-width="0.5" stroke-linejoin="round" stroke-miterlimit="10" d="M83.7,31.6    c0,0.3-0.3,0.6-0.6,0.6H7c-0.3,0-0.6-0.3-0.6-0.6v-3.8c0-0.3,0.3-0.6,0.6-0.6h76c0.3,0,0.6,0.3,0.6,0.6V31.6z M82.2,35.3    c0-0.3-0.3-0.6-0.6-0.6H8.4c-0.3,0-0.6,0.3-0.6,0.6v3.8c0,0.3,0.3,0.6,0.6,0.6h73.1c0.3,0,0.6-0.3,0.6-0.6V35.3z M80.7,42.8    c0-0.3-0.3-0.6-0.6-0.6H9.9c-0.3,0-0.6,0.3-0.6,0.6v3.8c0,0.3,0.3,0.6,0.6,0.6h70.2c0.3,0,0.6-0.3,0.6-0.6V42.8z M87.3,50.6    c0-0.3-0.3-0.6-0.6-0.6H3.3c-0.3,0-0.6,0.3-0.6,0.6v1.6c0,0.3,0.3,0.6,0.6,0.6h83.3c0.3,0,0.6-0.3,0.6-0.6V50.6z"></path><g><path fill="none" stroke="#000000" stroke-width="0.5" stroke-linejoin="round" stroke-miterlimit="10" d="M11,27.2h4.6l-0.2-2.3     c-0.1-0.7-0.7-1.1-1.3-1.1l-2.1,0.2c-0.7,0.1-1.1,0.7-1.1,1.3L11,27.2z"></path><polygon fill="none" stroke="#000000" stroke-width="0.5" stroke-linejoin="round" stroke-miterlimit="10" points="77.8,39.7      73.2,39.7 72.9,42.2 77.5,42.2    "></polygon><polygon fill="none" stroke="#000000" stroke-width="0.5" stroke-linejoin="round" stroke-miterlimit="10" points="13,47.2      13.3,50 17.9,50 17.6,47.2    "></polygon><polygon fill="none" stroke="#000000" stroke-width="0.5" stroke-linejoin="round" stroke-miterlimit="10" points="73.7,34.7      78.3,34.7 78.5,32.3 74,32.3    "></polygon><polygon fill="none" stroke="#000000" stroke-width="0.5" stroke-linejoin="round" stroke-miterlimit="10" points="12.2,39.7      12.5,42.2 17.1,42.2 16.8,39.7    "></polygon><path fill="none" stroke="#000000" stroke-width="0.5" stroke-linejoin="round" stroke-miterlimit="10" d="M79.2,25.4     c0.1-0.7-0.4-1.3-1.1-1.3L76,23.9c-0.7-0.1-1.3,0.4-1.3,1.1l-0.2,2.3H79L79.2,25.4z"></path><polygon fill="none" stroke="#000000" stroke-width="0.5" stroke-linejoin="round" stroke-miterlimit="10" points="72.4,47.2      72.1,50 76.7,50 77,47.2    "></polygon><polygon fill="none" stroke="#000000" stroke-width="0.5" stroke-linejoin="round" stroke-miterlimit="10" points="11.7,34.7      16.3,34.7 16,32.3 11.5,32.3    "></polygon></g><path fill="none" stroke="#000000" stroke-width="0.5" stroke-linejoin="round" stroke-miterlimit="10" d="M78.1,52.9h-0.7h-0.7    v0.7v9c0,0.4,0.3,0.7,0.7,0.7h0.7c0.4,0,0.7-0.3,0.7-0.7v-9v-0.7H78.1z"></path><path fill="none" stroke="#000000" stroke-width="0.5" stroke-linejoin="round" stroke-miterlimit="10" d="M81.2,52.9h-0.7h-0.7    v0.7v11.9c0,0.4,0.3,0.7,0.7,0.7h0.7c0.4,0,0.7-0.3,0.7-0.7V53.5v-0.7H81.2z"></path><g><path fill="none" stroke="#000000" stroke-width="0.5" stroke-linejoin="round" stroke-miterlimit="10" d="M12.4,52.9h0.7h0.7     v0.7v9c0,0.4-0.3,0.7-0.7,0.7h-0.7c-0.4,0-0.7-0.3-0.7-0.7v-9v-0.7H12.4z"></path><path fill="none" stroke="#000000" stroke-width="0.5" stroke-linejoin="round" stroke-miterlimit="10" d="M9.4,52.9h0.7h0.7v0.7     v11.9c0,0.4-0.3,0.7-0.7,0.7H9.4c-0.4,0-0.7-0.3-0.7-0.7V53.5v-0.7H9.4z"></path></g></g><g><circle fill="none" stroke="#000000" stroke-width="0.5" stroke-linejoin="round" stroke-miterlimit="10" cx="13" cy="29.9" r="0.7"></circle><circle fill="none" stroke="#000000" stroke-width="0.5" stroke-linejoin="round" stroke-miterlimit="10" cx="13.8" cy="37.3" r="0.7"></circle><circle fill="none" stroke="#000000" stroke-width="0.5" stroke-linejoin="round" stroke-miterlimit="10" cx="14.6" cy="44.9" r="0.7"></circle></g><g><circle fill="none" stroke="#000000" stroke-width="0.5" stroke-linejoin="round" stroke-miterlimit="10" cx="76.9" cy="29.9" r="0.7"></circle><circle fill="none" stroke="#000000" stroke-width="0.5" stroke-linejoin="round" stroke-miterlimit="10" cx="76.1" cy="37.3" r="0.7"></circle><circle fill="none" stroke="#000000" stroke-width="0.5" stroke-linejoin="round" stroke-miterlimit="10" cx="75.3" cy="44.9" r="0.7"></circle></g></g></svg>