<svg xmlns="http://www.w3.org/2000/svg" xmlns:xlink="http://www.w3.org/1999/xlink" version="1.1" x="0px" y="0px" viewBox="0 0 100 100" enable-background="new 0 0 100 100" xml:space="preserve"><g><path fill="#000000" d="M43.842,35.098c-1.232-0.906-1.883-2.192-1.883-3.72V8.079c0-0.981-0.798-1.78-1.78-1.78h-7.148   c-0.982,0-1.781,0.798-1.781,1.78v23.299c0,1.528-0.651,2.814-1.882,3.72c-2.424,1.779-3.871,4.628-3.871,7.619v8.297h-0.002   v27.492h0.001v12.92c0,2.211,9.968,2.275,11.104,2.275c1.136,0,11.104-0.064,11.104-2.275l0.002-12.92h0.002V64.365l0.004-21.648   C47.712,39.727,46.266,36.878,43.842,35.098z M33.031,7.299h7.148c0.43,0,0.78,0.35,0.78,0.78v4.941H32.25V8.079   C32.25,7.649,32.601,7.299,33.031,7.299z M26.498,42.717c0-2.674,1.294-5.221,3.463-6.813c1.477-1.085,2.29-2.692,2.29-4.525V14.02   h8.708v17.358c0,1.832,0.813,3.439,2.292,4.525c2.167,1.593,3.461,4.14,3.461,6.813l-0.001,8.298H26.497L26.498,42.717z    M46.708,67.939v9.565H26.496l0.001-25.491h20.211v12.352v2.707V67.939z M46.721,91.348c-0.3,0.457-3.676,1.354-10.122,1.354   c-6.446,0-9.823-0.896-10.104-1.275v-12.92h20.218L46.721,91.348z"></path><path fill="#000000" d="M74.506,64.443c0-1.019-3.615-1.533-10.744-1.533s-10.744,0.516-10.744,1.533   c0,0.029,0.015,0.055,0.021,0.082c-0.009,0.033-0.021,0.063-0.021,0.1v2.615c0,0.457,0.17,0.865,0.471,1.18l2.541,21.672   c0.248,1.875,4,2.592,7.33,2.654c0.08,0.059,0.177,0.1,0.285,0.1c0.105,0,0.197-0.041,0.277-0.096   c1.742-0.008,3.506-0.215,4.908-0.615c0.063-0.006,0.121-0.021,0.176-0.049c1.482-0.447,2.523-1.119,2.623-2.004l2.434-21.664   c0.043-0.051,0.08-0.109,0.103-0.18c0.006-0.018,0.002-0.035,0.006-0.053c0.222-0.279,0.336-0.601,0.336-0.945v-2.615   c0-0.033-0.014-0.063-0.021-0.096C74.492,64.502,74.506,64.473,74.506,64.443z M73.506,67.24c0,0.094-0.027,0.184-0.08,0.268   c-0.016-0.002-0.031,0-0.045-0.002c-0.199-0.035-0.4-0.057-0.602-0.057c-0.041,0-0.08,0.01-0.123,0.012   c-0.059,0.002-0.115,0.01-0.174,0.016c-0.209,0.019-0.41,0.053-0.609,0.107c-0.055,0.016-0.111,0.029-0.166,0.047   c-0.217,0.07-0.426,0.158-0.621,0.27c-0.031,0.017-0.063,0.027-0.092,0.045c-0.209,0.123-0.4,0.271-0.578,0.437   c-0.025,0.022-0.057,0.037-0.082,0.063c-0.023,0.021-0.049,0.068-0.072,0.096c-0.188,0.195-0.357,0.408-0.496,0.643   c-0.096-0.156-0.203-0.303-0.322-0.44c-0.028-0.043-0.063-0.101-0.092-0.13c-0.035-0.036-0.078-0.063-0.113-0.1   c-0.084-0.082-0.174-0.156-0.266-0.229c-0.088-0.07-0.172-0.142-0.268-0.203c-0.109-0.074-0.229-0.133-0.348-0.195   c-0.086-0.043-0.166-0.092-0.256-0.129c-0.15-0.063-0.312-0.106-0.472-0.149c-0.065-0.019-0.129-0.043-0.196-0.058   c-0.232-0.047-0.472-0.073-0.716-0.073c-0.252,0-0.497,0.03-0.737,0.082c-0.103,0.021-0.195,0.057-0.293,0.086   c-0.131,0.039-0.261,0.078-0.383,0.131c-0.119,0.051-0.23,0.11-0.343,0.174c-0.094,0.051-0.185,0.105-0.271,0.166   c-0.111,0.076-0.217,0.154-0.318,0.242c-0.09,0.078-0.172,0.164-0.254,0.25c-0.059,0.063-0.129,0.112-0.182,0.18   c-0.019,0.02-0.043,0.061-0.064,0.092c-0.021,0.027-0.039,0.055-0.059,0.082c-0.008,0.012-0.015,0.021-0.021,0.033   c-0.057,0.082-0.105,0.168-0.156,0.254c-0.074-0.115-0.158-0.221-0.246-0.324c-0.037-0.047-0.065-0.098-0.104-0.145   c-0.017-0.019-0.035-0.027-0.052-0.045c-0.104-0.107-0.223-0.201-0.342-0.295c-0.037-0.027-0.069-0.062-0.106-0.088   c-0.531-0.379-1.177-0.607-1.879-0.607c-0.866,0-1.65,0.338-2.231,0.887c-0.001,0.002-0.003,0.002-0.003,0.004   c-0.021,0.018-0.034,0.039-0.053,0.057c-0.157,0.158-0.295,0.33-0.418,0.519c-0.156-0.285-0.341-0.562-0.525-0.709   c-0.04-0.041-0.088-0.076-0.13-0.112c-0.001-0.003-0.003-0.003-0.003-0.005c-0.147-0.135-0.308-0.256-0.476-0.36   c-0.021-0.015-0.039-0.027-0.061-0.039c-0.166-0.103-0.338-0.191-0.52-0.264c-0.045-0.021-0.092-0.031-0.137-0.05   c-0.137-0.047-0.273-0.09-0.414-0.121c-0.086-0.021-0.174-0.032-0.263-0.047c-0.116-0.019-0.233-0.026-0.352-0.032   c-0.056-0.003-0.105-0.017-0.16-0.017c-0.021,0-0.04,0.006-0.062,0.006c-0.201,0.002-0.402,0.022-0.604,0.062   c-0.049,0.01-0.096,0.022-0.145,0.035c-0.082,0.02-0.166,0.032-0.248,0.059c-0.062-0.105-0.092-0.23-0.092-0.369v-2.01   c1.521,0.496,4.776,0.748,9.745,0.748c4.968,0,8.224-0.252,9.744-0.748v2.004H73.506z M58.68,70.752   c0.024-0.264,0.1-0.512,0.207-0.74c0.129-0.221,0.29-0.473,0.457-0.637c0.006-0.008,0.012-0.016,0.02-0.021   c0.757-0.713,2.003-0.752,2.824-0.207c0.066,0.045,0.125,0.101,0.187,0.15c0.043,0.037,0.088,0.068,0.126,0.107   c0.027,0.029,0.052,0.063,0.079,0.094c0.108,0.141,0.213,0.285,0.303,0.439c0.011,0.02,0.021,0.037,0.031,0.057   c0.024,0.045,0.045,0.096,0.067,0.143c0.104,0.254,0.164,0.529,0.164,0.82V91.73c-1.358-0.035-2.512-0.162-3.412-0.355   l-1.057-20.613C58.677,70.758,58.68,70.756,58.68,70.752z M64.145,70.834c0-0.008,0.006-0.016,0.006-0.023   c0.017-0.207,0.064-0.403,0.129-0.594c0.125-0.271,0.294-0.605,0.394-0.742c0.041-0.053,0.091-0.1,0.136-0.147   c0.08-0.086,0.159-0.17,0.25-0.242c0.028-0.024,0.061-0.047,0.09-0.069c0.869-0.63,2.129-0.675,3.041-0.08   c0.018,0.014,0.033,0.026,0.051,0.039c0.111,0.077,0.215,0.168,0.314,0.266c0.041,0.041,0.077,0.084,0.114,0.127   c0.129,0.191,0.388,0.773,0.592,1.348c0.005,0.006,0.013,0.01,0.015,0.016c0.002,0.027,0.012,0.052,0.014,0.078l-0.982,20.428   c-1.053,0.279-2.44,0.482-4.16,0.507V70.834H64.145z M63.762,63.91c4.299,0,7.447,0.262,8.938,0.533   c-1.49,0.272-4.64,0.535-8.938,0.535s-7.447-0.263-8.938-0.535C56.314,64.172,59.463,63.91,63.762,63.91z M57.021,89.969   L54.51,68.545c0.032-0.008,0.063-0.023,0.098-0.029c0.037-0.01,0.076-0.016,0.115-0.021c0.119-0.021,0.239-0.033,0.361-0.037   c0.043,0,0.086-0.004,0.128-0.004c0.106,0.004,0.212,0.017,0.315,0.03c0.103,0.016,0.205,0.039,0.309,0.068   c0.066,0.018,0.135,0.035,0.199,0.059c0.078,0.029,0.154,0.068,0.23,0.105c0.055,0.027,0.11,0.053,0.164,0.082   c0.057,0.033,0.11,0.072,0.166,0.109c0.09,0.063,0.182,0.125,0.264,0.199c0.004,0.004,0.01,0.01,0.016,0.014   c0.178,0.164,0.324,0.355,0.449,0.563c0.049,0.092,0.104,0.195,0.156,0.31c0.097,0.223,0.166,0.459,0.19,0.711l1.044,20.399   C57.634,90.752,57.068,90.318,57.021,89.969z M70.635,89.971c-0.029,0.26-0.492,0.613-1.314,0.939L70.297,70.6   c0.004-0.022,0.012-0.043,0.016-0.065c0.045-0.089,0.09-0.179,0.146-0.298c0.127-0.266,0.404-0.844,0.541-1.026   c0.029-0.03,0.057-0.063,0.088-0.092c0.139-0.129,0.289-0.24,0.451-0.332c0.031-0.019,0.063-0.029,0.094-0.045   c0.16-0.082,0.326-0.148,0.498-0.193c0.025-0.008,0.049-0.016,0.076-0.021c0.199-0.049,0.404-0.074,0.609-0.072   c0.008,0,0.016,0,0.022,0.002c0.07,0,0.14,0.021,0.207,0.029L70.635,89.971z"></path></g></svg>