<svg xmlns:dc="http://purl.org/dc/elements/1.1/" xmlns:cc="http://creativecommons.org/ns#" xmlns:rdf="http://www.w3.org/1999/02/22-rdf-syntax-ns#" xmlns:svg="http://www.w3.org/2000/svg" xmlns="http://www.w3.org/2000/svg" xmlns:sodipodi="http://sodipodi.sourceforge.net/DTD/sodipodi-0.dtd" xmlns:inkscape="http://www.inkscape.org/namespaces/inkscape" viewBox="0 0 80 80" version="1.1" x="0px" y="0px"><path style="text-indent:0;text-transform:none;direction:ltr;block-progression:tb;baseline-shift:baseline;color:#000000;enable-background:accumulate;" d="m 29.04167,30.310534 -3.604315,5.279764 c 0.394385,-0.278956 0.947073,-0.573163 1.45993,-0.573163 0.01871,0 0.03766,-4.31e-4 0.05623,0 l 2.876511,-4.143427 c 0.72854,-1.010109 2.184484,0.0627 1.464162,1.070123 l -3.039843,4.39081 c 0.223468,0.232552 0.438304,0.542126 0.563174,0.844763 l 1.800859,-2.588654 1.520571,2.196379 c -0.0328,0.163095 -0.05623,0.335903 -0.05623,0.506856 0,0.133359 0.03604,0.266592 0.05623,0.394222 l -1.530069,2.077634 -1.697703,-2.501124 c -0.115341,0.312981 -0.345617,0.590746 -0.569301,0.829155 l 1.703831,2.460413 -1.004215,1.414045 c -0.06055,0.0865 -0.07803,0.18517 -0.11263,0.281586 l -1.814376,-2.68087 c -0.05534,0.0036 -0.11263,0 -0.168863,0 -0.483915,0 -0.902411,-0.05064 -1.283081,-0.289878 l 3.386091,4.801056 c 0.546918,0.668004 1.847697,1.556197 3.139592,-0.183213 l 2.991859,-4.181563 c 1.070643,-0.27135 1.858474,-1.265222 1.858474,-2.421648 0,-1.133431 -0.763988,-2.111642 -1.802157,-2.421649 L 32.13895,30.423075 c -0.73146,-0.923119 -2.032599,-1.25769 -3.097277,-0.112642 z m 1.520569,0.394312 c -0.396168,0 -0.732127,0.335958 -0.732127,0.732126 0,0.39615 0.335959,0.67581 0.732127,0.67581 0.396168,0 0.732126,-0.27966 0.732126,-0.67581 0,-0.396168 -0.335958,-0.732126 -0.732126,-0.732126 z m 1.633205,1.464255 1.858474,2.646917 c -0.618158,0.13372 -1.10856,0.503937 -1.464253,1.013714 l -1.407935,-2.027427 0.901079,-1.295299 c 0.07029,-0.10038 0.06524,-0.228334 0.112642,-0.337905 z m 2.365331,3.547996 c 0.880642,0 1.576887,0.696246 1.576887,1.576888 0,0.880641 -0.696245,1.52057 -1.576887,1.52057 -0.880642,0 -1.576888,-0.639929 -1.576888,-1.52057 0,-0.880642 0.696246,-1.576888 1.576888,-1.576888 z m -2.027427,2.984732 c 0.344465,0.510389 0.844275,0.871973 1.464253,1.013715 l -1.914792,2.703234 c -0.259096,-0.574113 -0.809313,-0.989221 -1.464253,-1.013713 z" fill="#000000" fill-opacity="1" stroke="none" marker="none" visibility="visible" display="inline" overflow="visible"></path><path d="m 37.125138,30.497833 -3.604315,5.279763 c 0.394385,-0.278957 1.06403,-0.760295 1.576887,-0.760295 0.01871,0 0.03766,-4.31e-4 0.05623,0 l 2.759552,-3.956295 c 0.728541,-1.010109 2.184485,0.06271 1.464162,1.070123 l -3.039841,4.390811 c 0.223467,0.23255 0.438303,0.542125 0.563175,0.844761 l 1.800857,-2.588654 1.52057,2.196379 c -0.0328,0.163095 -0.05623,0.335904 -0.05623,0.506857 0,0.133359 0.03604,0.266594 0.05623,0.394222 l -1.530068,2.077634 -1.697703,-2.501124 c -0.115341,0.312981 -0.345617,0.590747 -0.5693,0.829154 l 1.70383,2.460413 -1.004215,1.414045 c -0.06055,0.0865 -0.07803,0.185171 -0.112642,0.281586 l -1.814374,-2.680869 c -0.05533,0.0036 -0.11263,0 -0.168862,0 -0.483915,0 -0.902411,-0.05064 -1.283081,-0.289877 l 3.38609,4.801054 c 0.546918,0.668005 1.847699,1.556199 3.139593,-0.183213 l 2.991868,-4.181562 c 1.070644,-0.27135 1.858473,-1.265222 1.858473,-2.421649 0,-1.13343 -0.763987,-2.111641 -1.802156,-2.421648 l -3.097455,-4.449076 c -0.73146,-0.923119 -2.032598,-1.25769 -3.097276,-0.112642 z m 1.520569,0.394311 c -0.396169,0 -0.732126,0.335959 -0.732126,0.732126 0,0.396153 0.335957,0.675811 0.732126,0.675811 0.396169,0 0.732127,-0.279658 0.732127,-0.675811 0,-0.396167 -0.335958,-0.732126 -0.732127,-0.732126 z m 1.633204,1.464255 1.858474,2.646919 c -0.618158,0.133719 -1.108559,0.503936 -1.464251,1.013712 l -1.407936,-2.027426 0.901079,-1.295301 c 0.07029,-0.10038 0.06524,-0.228332 0.11263,-0.337904 z m 2.365332,3.547997 c 0.880642,0 1.576887,0.696245 1.576887,1.576887 0,0.880642 -0.696245,1.520569 -1.576887,1.520569 -0.880643,0 -1.576887,-0.639927 -1.576887,-1.520569 0,-0.880642 0.696244,-1.576887 1.576887,-1.576887 z m -2.027427,2.984732 c 0.344465,0.510389 0.844275,0.871974 1.464252,1.013713 l -1.914791,2.703235 C 39.90718,42.031964 39.356965,41.616854 38.702024,41.592362 z" style="text-indent:0;text-transform:none;direction:ltr;block-progression:tb;baseline-shift:baseline;color:#000000;enable-background:accumulate;" fill="#000000" fill-opacity="1" stroke="none" marker="none" visibility="visible" display="inline" overflow="visible"></path><path style="text-indent:0;text-transform:none;direction:ltr;block-progression:tb;baseline-shift:baseline;color:#000000;enable-background:accumulate;" d="m 45.208605,30.497833 -3.604313,5.279763 c 0.394383,-0.278957 1.064029,-0.760295 1.576885,-0.760295 0.01871,0 0.03766,-4.31e-4 0.05623,0 l 2.759553,-3.956295 c 0.72854,-1.010109 2.184484,0.06271 1.464163,1.070123 l -3.039848,4.390811 c 0.223468,0.23255 0.438303,0.542125 0.563175,0.844761 l 1.800858,-2.588654 1.520571,2.196379 c -0.0328,0.163095 -0.05623,0.335904 -0.05623,0.506857 0,0.133359 0.03604,0.266594 0.05623,0.394222 l -1.530068,2.077634 -1.697704,-2.501124 c -0.115341,0.312981 -0.345618,0.590747 -0.5693,0.829154 l 1.70383,2.460413 -1.004216,1.414045 c -0.06055,0.0865 -0.07803,0.185171 -0.112641,0.281586 l -1.81437,-2.680869 c -0.05534,0.0036 -0.11263,0 -0.168862,0 -0.483914,0 -0.902411,-0.05064 -1.28308,-0.289877 l 3.386089,4.801054 c 0.546919,0.668005 1.847699,1.556199 3.139593,-0.183213 l 2.991868,-4.181562 c 1.070644,-0.27135 1.858474,-1.265222 1.858474,-2.421649 0,-1.13343 -0.763987,-2.111641 -1.802157,-2.421648 l -3.097456,-4.449076 c -0.73146,-0.923119 -2.032599,-1.25769 -3.097277,-0.112642 z m 1.520569,0.394311 c -0.396169,0 -0.732125,0.335959 -0.732125,0.732126 0,0.396153 0.335956,0.675811 0.732125,0.675811 0.396169,0 0.732127,-0.279658 0.732127,-0.675811 0,-0.396167 -0.335958,-0.732126 -0.732127,-0.732126 z m 1.633205,1.464255 1.858476,2.646919 c -0.618159,0.133719 -1.108562,0.503936 -1.464254,1.013712 l -1.407934,-2.027426 0.901078,-1.295301 c 0.07029,-0.10038 0.06524,-0.228332 0.11263,-0.337904 z m 2.365331,3.547997 c 0.880642,0 1.576887,0.696245 1.576887,1.576887 0,0.880642 -0.696245,1.520569 -1.576887,1.520569 -0.880643,0 -1.576887,-0.639927 -1.576887,-1.520569 0,-0.880642 0.696244,-1.576887 1.576887,-1.576887 z m -2.027427,2.984732 c 0.344466,0.510389 0.844275,0.871974 1.464252,1.013713 l -1.91479,2.703235 c -0.259096,-0.574112 -0.809313,-0.989222 -1.464252,-1.013714 z" fill="#000000" fill-opacity="1" stroke="none" marker="none" visibility="visible" display="inline" overflow="visible"></path><path d="m 53.292072,30.57518 -3.604315,5.279764 c 0.394385,-0.278956 1.06403,-0.760295 1.576887,-0.760295 0.01871,0 0.03766,-4.33e-4 0.05623,0 l 2.759552,-3.956295 c 0.728541,-1.010109 2.184485,0.06272 1.464163,1.070123 l -3.039847,4.39081 c 0.223468,0.232551 0.438303,0.542126 0.563174,0.844761 l 1.800859,-2.588653 1.520571,2.196379 c -0.0328,0.163094 -0.05623,0.335904 -0.05623,0.506857 0,0.133359 0.03604,0.266592 0.05623,0.394222 l -1.530069,2.077634 -1.697703,-2.501125 c -0.115341,0.312982 -0.345618,0.590748 -0.569302,0.829155 l 1.703831,2.460414 -1.004214,1.414043 c -0.06055,0.0865 -0.07803,0.185172 -0.112642,0.281588 l -1.814378,-2.680871 c -0.05533,0.0036 -0.112629,0 -0.168862,0 -0.483915,0 -0.902411,-0.05064 -1.283081,-0.289876 l 3.386091,4.801053 c 0.546918,0.668006 1.847697,1.5562 3.139591,-0.183212 l 2.991867,-4.181563 c 1.070644,-0.271349 1.858475,-1.265221 1.858475,-2.421648 0,-1.133431 -0.763987,-2.111641 -1.802155,-2.421648 l -3.097455,-4.449076 c -0.731459,-0.923119 -2.032599,-1.25769 -3.097277,-0.112642 z m 1.520569,0.394311 c -0.396169,0 -0.732126,0.335959 -0.732126,0.732126 0,0.396151 0.335957,0.675812 0.732126,0.675812 0.396169,0 0.732126,-0.279661 0.732126,-0.675812 0,-0.396167 -0.335957,-0.732126 -0.732126,-0.732126 z m 1.633204,1.464256 1.858474,2.646918 c -0.618156,0.133719 -1.10856,0.503936 -1.464251,1.013712 l -1.407935,-2.027426 0.901078,-1.295299 c 0.07029,-0.10038 0.06524,-0.228335 0.11263,-0.337905 z m 2.365332,3.547996 c 0.880642,0 1.576887,0.696246 1.576887,1.576888 0,0.880641 -0.696245,1.52057 -1.576887,1.52057 -0.880643,0 -1.576887,-0.639929 -1.576887,-1.52057 0,-0.880642 0.696244,-1.576888 1.576887,-1.576888 z m -2.027427,2.984732 c 0.344465,0.510389 0.844275,0.871973 1.464252,1.013715 l -1.914791,2.703233 C 56.074115,42.109311 55.523898,41.694202 54.868959,41.66971 z" style="text-indent:0;text-transform:none;direction:ltr;block-progression:tb;baseline-shift:baseline;color:#000000;enable-background:accumulate;" fill="#000000" fill-opacity="1" stroke="none" marker="none" visibility="visible" display="inline" overflow="visible"></path><path style="text-indent:0;text-transform:none;direction:ltr;block-progression:tb;baseline-shift:baseline;color:#000000;enable-background:accumulate;" d="m 61.37554,30.762478 -3.604314,5.279763 c 0.394384,-0.278956 1.064029,-0.760294 1.576886,-0.760294 0.01871,0 0.03766,-4.32e-4 0.05623,0 l 2.759552,-3.956295 c 0.72854,-1.01011 2.184485,0.0627 1.464163,1.070124 l -3.039842,4.390808 c 0.223466,0.232553 0.438302,0.542127 0.563174,0.844763 l 1.80086,-2.588654 1.520568,2.196378 c -0.0328,0.163096 -0.05623,0.335904 -0.05623,0.506857 0,0.13336 0.03604,0.266593 0.05623,0.394222 l -1.530066,2.077634 -1.697704,-2.501123 c -0.115342,0.31298 -0.345617,0.590747 -0.569301,0.829155 l 1.703831,2.460413 -1.004217,1.414044 c -0.06055,0.0865 -0.07803,0.18517 -0.11263,0.281586 L 59.448356,40.02099 c -0.05534,0.0036 -0.11263,0 -0.168862,0 -0.483916,0 -0.902413,-0.05064 -1.283081,-0.289878 l 3.386089,4.801054 c 0.54692,0.668005 1.847699,1.556199 3.139593,-0.183211 l 2.991869,-4.181562 c 1.070643,-0.271352 1.858473,-1.265223 1.858473,-2.421649 0,-1.133431 -0.763987,-2.111643 -1.802156,-2.421649 l -3.097455,-4.449076 c -0.73146,-0.92312 -2.032599,-1.25769 -3.097276,-0.112642 z m 1.52057,0.394312 c -0.396168,0 -0.732127,0.335958 -0.732127,0.732126 0,0.396153 0.335959,0.67581 0.732127,0.67581 0.396169,0 0.732127,-0.279657 0.732127,-0.67581 0,-0.396168 -0.335958,-0.732126 -0.732127,-0.732126 z m 1.633203,1.464254 1.858476,2.646918 c -0.618159,0.133721 -1.10856,0.503938 -1.464253,1.013714 l -1.407935,-2.027426 0.901078,-1.295301 c 0.07029,-0.10038 0.06524,-0.228332 0.11263,-0.337905 z m 2.365332,3.547997 c 0.880642,0 1.576888,0.696245 1.576888,1.576887 0,0.880642 -0.696246,1.52057 -1.576888,1.52057 -0.880642,0 -1.576887,-0.639928 -1.576887,-1.52057 0,-0.880642 0.696245,-1.576887 1.576887,-1.576887 z m -2.027426,2.984733 c 0.344464,0.510388 0.844274,0.871972 1.464252,1.013713 l -1.914792,2.703235 c -0.259096,-0.574113 -0.809312,-0.989221 -1.464252,-1.013713 z" fill="#000000" fill-opacity="1" stroke="none" marker="none" visibility="visible" display="inline" overflow="visible"></path><path d="m 69.459005,30.762478 -3.604314,5.279763 c 0.394384,-0.278956 1.064029,-0.760294 1.576886,-0.760294 0.01871,0 0.03766,-4.32e-4 0.05623,0 l 2.759553,-3.956295 c 0.72854,-1.01011 2.184484,0.0627 1.464163,1.070124 l -3.039844,4.390808 c 0.223468,0.232553 0.438303,0.542127 0.563175,0.844763 l 1.800859,-2.588654 1.520569,2.196378 c -0.03279,0.163096 -0.05622,0.335904 -0.05622,0.506857 0,0.13336 0.03604,0.266593 0.05622,0.394222 l -1.530065,2.077634 -1.697706,-2.501123 c -0.115341,0.31298 -0.345617,0.590747 -0.569301,0.829155 l 1.703832,2.460413 -1.004217,1.414044 c -0.06055,0.0865 -0.07803,0.18517 -0.11263,0.281586 L 67.531821,40.02099 c -0.05534,0.0036 -0.11263,0 -0.168862,0 -0.483916,0 -0.902413,-0.05064 -1.283082,-0.289878 l 3.386091,4.801054 c 0.546918,0.668005 1.847696,1.556199 3.13959,-0.183211 l 2.991871,-4.181562 c 1.070643,-0.271352 1.858474,-1.265223 1.858474,-2.421649 0,-1.133431 -0.763989,-2.111643 -1.802157,-2.421649 l -3.097455,-4.449076 c -0.731459,-0.92312 -2.032599,-1.25769 -3.097276,-0.112642 z m 1.520569,0.394312 c -0.396168,0 -0.732125,0.335958 -0.732125,0.732126 0,0.396153 0.335957,0.67581 0.732125,0.67581 0.396168,0 0.732127,-0.279657 0.732127,-0.67581 0,-0.396168 -0.335959,-0.732126 -0.732127,-0.732126 z m 1.633205,1.464254 1.858476,2.646918 c -0.618159,0.133721 -1.108562,0.503938 -1.464254,1.013714 l -1.407935,-2.027426 0.901078,-1.295301 c 0.07029,-0.10038 0.06524,-0.228332 0.112642,-0.337905 z m 2.36533,3.547997 c 0.880642,0 1.576888,0.696245 1.576888,1.576887 0,0.880642 -0.696246,1.52057 -1.576888,1.52057 -0.880642,0 -1.576886,-0.639928 -1.576886,-1.52057 0,-0.880642 0.696244,-1.576887 1.576886,-1.576887 z m -2.027426,2.984733 c 0.344465,0.510388 0.844275,0.871972 1.464252,1.013713 l -1.914791,2.703235 c -0.259095,-0.574113 -0.809313,-0.989221 -1.464252,-1.013713 z" style="text-indent:0;text-transform:none;direction:ltr;block-progression:tb;baseline-shift:baseline;color:#000000;enable-background:accumulate;" fill="#000000" fill-opacity="1" stroke="none" marker="none" visibility="visible" display="inline" overflow="visible"></path><path style="text-indent:0;text-transform:none;direction:ltr;block-progression:tb;baseline-shift:baseline;color:#000000;enable-background:accumulate;" d="M 8.40625 17.8125 C 7.4266213 17.894875 6.3891991 18.292162 5.34375 19.09375 L 5.3125 19.125 C 5.2702598 19.178685 5.2237595 19.226492 5.1875 19.28125 L 4.875 19.5 C 4.0265262 20.049022 3.7600701 20.347662 1.875 21.5 L 1.53125 21.71875 L 1.875 21.90625 C 4.6688881 23.319862 6.5964381 23.406798 7.6875 23.875 C 5.3861041 30.489267 6.629019 34.439815 9 36.71875 C 10.473334 38.134887 12.349913 38.89879 14.0625 39.34375 L 14.125 39.5 C 14.244537 39.899221 14.111694 40.389772 13.875 40.875 C 13.63842 41.360226 13.264445 41.831705 12.90625 42.21875 C 12.367255 42.527506 11.618544 42.754385 10.96875 43.03125 C 10.632128 43.174669 10.306753 43.341524 10.0625 43.53125 C 9.8182471 43.720976 9.6466842 43.974636 9.625 44.28125 L 9.59375 44.59375 L 9.90625 44.5 C 12.697952 43.736761 12.930323 43.712592 15.15625 44.28125 L 15.3125 44.34375 L 15.375 44.15625 C 15.4742 43.931429 15.414575 43.682511 15.28125 43.53125 C 15.147935 43.379991 15.011944 43.287713 14.84375 43.1875 C 14.675555 43.087287 14.484459 43.003199 14.375 42.90625 C 14.291362 42.832175 14.267799 42.754195 14.25 42.6875 C 14.71447 42.291231 15.270389 41.891609 15.6875 41.4375 C 15.911836 41.193264 16.109881 40.91256 16.21875 40.625 C 16.320493 40.356275 16.33411 40.080524 16.25 39.78125 C 16.485023 39.812868 16.75973 39.853037 16.96875 39.875 L 17 39.875 C 20.924936 39.75515 21.355335 38.079395 22.3125 37.53125 C 22.791081 37.257175 23.430524 37.193069 24.90625 37.65625 C 26.381976 38.11943 28.658156 39.113904 32.21875 40.96875 L 32.3125 41.03125 L 32.46875 40.9375 C 33.05382 40.497704 33.438456 39.705916 33.6875 38.84375 C 33.936544 37.981581 34.03593 37.063681 33.8125 36.375 L 33.75 36.25 L 33.625 36.1875 C 29.878024 35.752835 26.582532 35.100054 25.03125 34.125 C 24.64343 33.881235 24.340377 33.601209 24.1875 33.34375 C 24.034625 33.086294 24.018425 32.82637 24.09375 32.53125 C 24.244403 31.941016 24.952661 31.202954 26.40625 30.3125 L 26.625 30.15625 L 26.4375 29.96875 C 26.3743 29.901338 26.324922 29.858025 26.28125 29.84375 C 26.237575 29.829525 26.20846 29.822613 26.15625 29.8125 C 26.051837 29.792275 25.91135 29.770613 25.75 29.75 C 25.427304 29.708775 24.993029 29.702699 24.46875 29.625 C 23.420199 29.469608 22.033269 29.185941 20.59375 28.65625 C 17.714708 27.596864 14.622304 25.518911 13.5625 21.15625 L 13.53125 21.15625 C 13.537375 20.702988 13.324475 20.214682 12.90625 19.71875 C 12.467589 19.198593 11.830825 18.672542 11.0625 18.3125 C 10.294178 17.952458 9.3858774 17.73012 8.40625 17.8125 z M 9.125 18.25 C 9.7698732 18.287143 10.343836 18.469843 10.875 18.71875 C 11.583217 19.050629 12.167449 19.500298 12.5625 19.96875 C 12.957551 20.4372 13.175154 20.924466 13.15625 21.1875 L 13.15625 21.21875 L 13.15625 21.25 C 14.254675 25.771635 17.476948 27.973124 20.4375 29.0625 C 21.917776 29.607186 23.341025 29.873386 24.40625 30.03125 C 24.938862 30.110175 25.401859 30.147015 25.71875 30.1875 C 25.749225 30.191375 25.753175 30.183625 25.78125 30.1875 C 24.581479 30.984326 23.838283 31.724331 23.65625 32.4375 C 23.554188 32.83738 23.60901 33.219789 23.8125 33.5625 C 24.015999 33.905211 24.355334 34.232291 24.78125 34.5 C 26.45637 35.552892 29.684027 36.187531 33.375 36.625 C 33.523987 37.173264 33.501788 37.955295 33.28125 38.71875 C 33.061155 39.480697 32.645866 40.139857 32.21875 40.5 C 28.821746 38.739267 26.546456 37.684513 25.0625 37.21875 C 23.53521 36.739386 22.698197 36.810108 22.09375 37.15625 C 20.889419 37.845941 20.795295 39.311505 17.03125 39.4375 C 17.022375 39.436563 17.008963 39.438451 17 39.4375 C 14.958416 39.220628 11.57644 38.582299 9.3125 36.40625 C 7.038622 34.22065 5.8022789 30.481655 8.1875 23.8125 L 8.25 23.65625 L 8.125 23.5625 C 8.086037 23.540035 8.038719 23.522989 8 23.5 C 7.8672492 23.421182 7.7225054 23.334419 7.59375 23.25 C 7.3278034 23.075632 7.0812394 22.88019 6.84375 22.6875 C 6.8078115 22.658937 6.753059 22.621822 6.71875 22.59375 C 6.6899343 22.569431 6.6531983 22.555769 6.625 22.53125 C 6.2471431 22.202701 5.9472167 21.845524 5.71875 21.5 C 5.622628 21.35463 5.5328605 21.207642 5.46875 21.0625 C 5.4369721 20.990557 5.4295357 20.914877 5.40625 20.84375 C 5.3662915 20.708745 5.3371788 20.559525 5.3125 20.40625 C 5.2939375 20.071874 5.3532641 19.759887 5.59375 19.4375 C 5.604125 19.423575 5.6452813 19.420188 5.65625 19.40625 C 6.6273376 18.672937 7.5856165 18.35461 8.46875 18.28125 C 8.6927918 18.262644 8.9100423 18.237619 9.125 18.25 z M 7.5625 19.5 C 7.0073105 19.5 6.5 19.976063 6.5 20.53125 C 6.5 21.086443 7.0073105 21.5 7.5625 21.5 C 8.1176909 21.5 8.5 21.086443 8.5 20.53125 C 8.5 19.976062 8.1176909 19.5 7.5625 19.5 z M 7.5625 19.96875 C 7.8804494 19.96875 8.125 20.213303 8.125 20.53125 C 8.125 20.849201 7.8804494 21.09375 7.5625 21.09375 C 7.244552 21.09375 7 20.849201 7 20.53125 C 7 20.213303 7.244552 19.96875 7.5625 19.96875 z M 4.875 20.03125 C 4.8760373 20.042021 4.873952 20.051755 4.875 20.0625 C 4.8734759 20.072274 4.8763562 20.083963 4.875 20.09375 C 4.8595883 20.204963 4.8375073 20.325061 4.84375 20.4375 C 4.8599006 20.728416 4.9640906 21.00313 5.09375 21.28125 C 5.1708479 21.521061 5.2888178 21.766768 5.4375 21.96875 C 5.5120051 22.069963 5.60693 22.147923 5.71875 22.25 C 5.7288321 22.259204 5.7396767 22.272039 5.75 22.28125 C 5.7601905 22.292231 5.7709224 22.301562 5.78125 22.3125 C 5.8771973 22.396294 5.983009 22.478149 6.09375 22.5625 C 6.2989107 22.752724 6.5138848 22.94962 6.75 23.125 C 5.6661608 22.826228 4.314135 22.509215 2.4375 21.625 C 3.6635204 20.851507 4.2756077 20.433793 4.875 20.03125 z M 14.5 39.6875 C 14.991364 39.825215 15.308121 39.938726 15.78125 40 C 15.812162 40.169736 15.844175 40.333773 15.78125 40.5 C 15.701538 40.710555 15.545461 40.936645 15.34375 41.15625 C 14.940328 41.595458 14.34987 42.025655 13.84375 42.46875 L 13.78125 42.53125 L 13.78125 42.625 C 13.785125 42.874295 13.93464 43.077822 14.09375 43.21875 C 14.252861 43.359672 14.429487 43.46463 14.59375 43.5625 C 14.748243 43.65455 14.869196 43.742278 14.9375 43.8125 C 13.205374 43.388197 12.3713 43.425551 10.3125 43.96875 C 10.33691 43.946638 10.314652 43.928912 10.34375 43.90625 C 10.533279 43.759033 10.80304 43.574679 11.125 43.4375 C 11.76892 43.16314 12.574679 42.929747 13.1875 42.5625 L 13.21875 42.5625 L 13.25 42.53125 C 13.629495 42.121186 14.016993 41.604496 14.28125 41.0625 C 14.497186 40.619611 14.547621 40.146841 14.5 39.6875 z " transform="scale(0.8,0.8)" fill="#000000" fill-opacity="1" stroke="none" marker="none" visibility="visible" display="inline" overflow="visible"></path><path style="text-indent:0;text-transform:none;direction:ltr;block-progression:tb;baseline-shift:baseline;color:#000000;enable-background:accumulate;" d="m 12.6875,43.6875 c -1.630615,0 -2.96875,1.306886 -2.96875,2.9375 0,1.630616 1.338135,3 2.96875,3 1.418547,-0.05112 1.556432,-0.551582 2.78125,-0.5625 l 15.3125,0 c 1.620153,0.0074 1.804522,0.52381 2.71875,0.5625 1.630614,0 3,-1.369384 3,-3 0,-1.630614 -1.369386,-2.9375 -3,-2.9375 -1.238254,0.304331 -1.585389,0.669145 -2.71875,0.625 l -15.3125,0 c -1.011646,-0.171082 -1.740076,-0.604741 -2.78125,-0.625 z m 0,0.875 c 0.564735,0 1.062469,0.214564 1.4375,0.5625 0.0066,0.0061 0.02472,-0.0062 0.03125,0 l 17.9375,0 c 0.369155,-0.348848 0.844451,-0.5625 1.40625,-0.5625 1.155294,0 2.09375,0.907206 2.09375,2.0625 0,1.155296 -0.938456,2.09375 -2.09375,2.09375 -0.554673,0 -1.042854,-0.210659 -1.40625,-0.5625 l -1.3125,0 -15.3125,0 -1.34375,0 c -0.368687,0.356291 -0.876159,0.5625 -1.4375,0.5625 -1.155296,0 -2.09375,-0.938454 -2.09375,-2.09375 0,-1.155294 0.938454,-2.0625 2.09375,-2.0625 z" transform="scale(0.8,0.8)" fill="#000000" fill-opacity="1" stroke="none" marker="none" visibility="visible" display="inline" overflow="visible"></path></svg>