<svg xmlns="http://www.w3.org/2000/svg" xmlns:xlink="http://www.w3.org/1999/xlink" version="1.1" x="0px" y="0px" viewBox="0 0 30 90" enable-background="new 0 0 30 90" xml:space="preserve"><g><circle cx="15" cy="58.075" r="1.003"></circle><circle cx="15" cy="54.586" r="1.003"></circle><path d="M15.686,21.222c2.787-0.338,4.946-2.707,4.946-5.585V5.583h-0.001c0-0.378-0.307-0.685-0.684-0.685   c-0.379,0-0.686,0.307-0.686,0.685v10.043c0,2.354-1.908,4.261-4.261,4.261c-2.354,0-4.261-1.906-4.261-4.261V5.583h-0.001   c0-0.378-0.307-0.685-0.685-0.685c-0.378,0-0.685,0.307-0.685,0.685c0,0.002,0.001,0.004,0.001,0.007v10.047   c0,2.877,2.159,5.246,4.945,5.585V48.13c-2.786,0.339-4.946,2.708-4.946,5.585v26.653C9.369,83.479,11.891,86,15,86   c3.109,0,5.631-2.521,5.631-5.632V53.715c0.001-2.877-2.16-5.246-4.945-5.585V21.222z M19.262,53.845v26.513   c0,2.354-1.908,4.262-4.261,4.262c-2.354,0-4.261-1.907-4.261-4.262V53.845c0-2.354,1.908-4.261,4.261-4.261   C17.354,49.584,19.262,51.491,19.262,53.845z"></path></g></svg>