<svg xmlns="http://www.w3.org/2000/svg" xmlns:xlink="http://www.w3.org/1999/xlink" version="1.1" x="0px" y="0px" viewBox="0 0 100 100" enable-background="new 0 0 100 100" xml:space="preserve"><g><path fill="none" stroke="#000000" stroke-width="0.2551" stroke-linecap="round" stroke-linejoin="round" stroke-miterlimit="10" d="   M50.539,32.37v61.187h-0.691V32.37c-0.095-0.02-0.186-0.047-0.274-0.081l-5.417,13.133c0.729,0.39,1.081,1.236,0.844,2.026   c-0.274,0.918-1.242,1.439-2.157,1.166c-0.918-0.275-1.439-1.24-1.165-2.158c0.276-0.918,1.239-1.439,2.16-1.166l5.424-13.157   c-0.003-0.006-11.653,14.977-11.653,14.977c0.597,0.569,0.708,1.48,0.271,2.178c-0.508,0.81-1.583,1.053-2.389,0.545   c-0.813-0.508-1.056-1.579-0.548-2.391c0.508-0.81,1.578-1.054,2.391-0.546l11.653-14.983c-0.034-0.03-0.061-0.057-0.088-0.091   l-11.836,7.981c0.393,0.728,0.217,1.629-0.417,2.154c-0.735,0.613-1.829,0.515-2.442-0.224c-0.609-0.735-0.511-1.83,0.224-2.443   c0.739-0.612,1.829-0.511,2.446,0.224l11.823-7.974c-0.074-0.125-0.129-0.255-0.169-0.393l-11.295,2.049   c0.065,0.824-0.46,1.576-1.254,1.806c-0.917,0.264-1.88-0.268-2.144-1.189c-0.264-0.921,0.268-1.883,1.188-2.148   c0.922-0.264,1.885,0.271,2.148,1.189l11.294-2.049c-0.006-0.092-0.006-0.183,0-0.274L38.14,28.437   c-0.244,0.79-1.006,1.297-1.829,1.216c-0.952-0.098-1.647-0.949-1.552-1.9c0.095-0.952,0.95-1.65,1.898-1.555   c0.955,0.095,1.652,0.949,1.554,1.901l10.316,2.09c0.003-0.014,0.007-0.027,0.013-0.041l-15.251-6.754   c-0.406,0.715-1.263,1.047-2.045,0.79c-0.912-0.298-1.41-1.277-1.111-2.188c0.298-0.912,1.28-1.406,2.188-1.108   c0.912,0.298,1.409,1.277,1.111,2.188l15.244,6.755c0.021-0.037,0.041-0.074,0.067-0.108L36.867,19.436   c-0.603,0.565-1.518,0.63-2.188,0.156c-0.786-0.552-0.977-1.633-0.42-2.419c0.548-0.779,1.632-0.969,2.415-0.417   c0.782,0.552,0.972,1.633,0.42,2.416l11.765,10.19l-9.823-13.27c-0.706,0.423-1.613,0.288-2.168-0.322   c-0.643-0.711-0.593-1.809,0.115-2.453c0.711-0.643,1.81-0.589,2.453,0.119s0.589,1.805-0.119,2.449l9.889,13.36   c0.089-0.061,0.18-0.115,0.278-0.159l-3.88-19.184c-0.818,0.082-1.585-0.427-1.828-1.213c-0.281-0.914,0.23-1.886,1.145-2.167   c0.918-0.285,1.887,0.227,2.172,1.145c0.28,0.915-0.23,1.883-1.146,2.168l3.868,19.14c0.137-0.03,0.275-0.044,0.413-0.04   l0.794-14.225c-0.817-0.129-1.431-0.81-1.464-1.637c-0.047-0.955,0.697-1.768,1.652-1.809c0.956-0.044,1.77,0.698,1.81,1.653   c0.045,0.959-0.697,1.769-1.653,1.809l-0.793,14.248c0.055,0.014,0.105,0.027,0.156,0.041l5.434-13.029   c-0.724-0.393-1.073-1.243-0.833-2.033c0.278-0.915,1.246-1.436,2.161-1.155c0.918,0.277,1.437,1.247,1.158,2.165   c-0.277,0.915-1.246,1.433-2.164,1.152l-5.438,13.042c0.061,0.034,0.119,0.071,0.177,0.112l8.354-9.255   c-0.557-0.613-0.604-1.528-0.113-2.192c0.566-0.772,1.654-0.938,2.423-0.373c0.772,0.569,0.942,1.653,0.372,2.426   c-0.569,0.772-1.653,0.938-2.425,0.372l-8.354,9.255c0.027,0.03,0.055,0.061,0.082,0.095l13.302-8.398   c-0.368-0.738-0.165-1.633,0.485-2.141c0.752-0.589,1.843-0.457,2.432,0.298c0.59,0.755,0.458,1.846-0.297,2.436   c-0.753,0.59-1.843,0.454-2.433-0.298l-13.308,8.398c0.042,0.085,0.075,0.167,0.103,0.254l13.296-2.737   c0.085-0.203,0.207-0.39,0.359-0.549c0.667-0.684,1.765-0.701,2.452-0.034l0.904-0.187c-0.084-0.82,0.421-1.588,1.207-1.833   c0.915-0.288,1.89,0.223,2.174,1.135c0.286,0.915-0.224,1.887-1.138,2.175c-0.911,0.288-1.883-0.224-2.172-1.135l-0.728,0.149   c0.236,0.362,0.325,0.799,0.254,1.227c-0.159,0.945-1.054,1.582-1.999,1.422c-0.945-0.156-1.582-1.05-1.422-1.998l-13.114,2.706   c0.011,0.112,0.011,0.224,0,0.335l14.798,2.866c0.236-0.79,0.999-1.305,1.821-1.227c0.952,0.084,1.654,0.928,1.568,1.883   c-0.087,0.952-0.932,1.657-1.887,1.569c-0.951-0.088-1.652-0.932-1.568-1.884l-14.8-2.866c-0.007,0.027-0.013,0.051-0.023,0.078   l14.001,6.602c-0.048-0.613,0.23-1.202,0.731-1.555c0.786-0.552,1.866-0.358,2.418,0.424c0.55,0.786,0.36,1.866-0.426,2.415   l0.677,0.318c0.424-0.704,1.288-1.016,2.067-0.742c0.9,0.322,1.375,1.312,1.057,2.216c-0.322,0.904-1.315,1.375-2.216,1.057   c-0.901-0.322-1.376-1.311-1.058-2.216l-0.913-0.43c-0.015,0.007-0.035,0.014-0.049,0.017c-0.907,0.312-1.893-0.172-2.202-1.077   L51.681,31.56c-0.055,0.092-0.118,0.179-0.186,0.257l11.341,11.636c0.644-0.515,1.563-0.501,2.195,0.027   c0.731,0.617,0.826,1.71,0.21,2.446c-0.613,0.731-1.707,0.827-2.438,0.213c-0.739-0.617-0.834-1.71-0.217-2.446l-11.35-11.643   c-0.107,0.084-0.229,0.156-0.358,0.21l4.837,14.021c0.807-0.189,1.63,0.214,1.976,0.962c0.402,0.87,0.024,1.9-0.848,2.303   c-0.87,0.4-1.899,0.021-2.3-0.85c-0.402-0.871-0.023-1.9,0.848-2.3C55.391,46.398,50.545,32.366,50.539,32.37z"></path></g><path fill-rule="evenodd" clip-rule="evenodd" d="M50.539,32.37v61.187h-0.691V32.37c-0.095-0.02-0.183-0.047-0.274-0.081  l-5.417,13.137c0.729,0.386,1.081,1.236,0.848,2.026c-0.278,0.918-1.243,1.439-2.161,1.166c-0.918-0.278-1.437-1.244-1.165-2.162  c0.276-0.918,1.243-1.439,2.16-1.162l5.428-13.161c-0.007-0.006-11.657,14.977-11.657,14.977c0.599,0.569,0.711,1.48,0.274,2.178  c-0.511,0.813-1.583,1.056-2.392,0.548c-0.813-0.511-1.056-1.582-0.548-2.392c0.508-0.813,1.578-1.057,2.391-0.549l11.653-14.98  c-0.03-0.034-0.061-0.061-0.088-0.095l-11.833,7.984c0.39,0.725,0.213,1.626-0.417,2.154c-0.739,0.613-1.833,0.512-2.446-0.223  c-0.609-0.738-0.511-1.833,0.224-2.442c0.739-0.613,1.833-0.515,2.446,0.224l11.823-7.981c-0.074-0.122-0.129-0.251-0.169-0.393  l-11.295,2.053c0.065,0.824-0.457,1.579-1.25,1.806c-0.921,0.264-1.88-0.268-2.144-1.189c-0.264-0.921,0.264-1.883,1.185-2.148  c0.922-0.264,1.885,0.271,2.148,1.193l11.294-2.053c-0.006-0.088-0.006-0.183,0-0.271L38.144,28.44  c-0.244,0.786-1.01,1.294-1.829,1.213c-0.952-0.095-1.65-0.949-1.556-1.904c0.095-0.948,0.95-1.646,1.901-1.551  s1.649,0.949,1.554,1.897l10.313,2.094c0.007-0.014,0.007-0.027,0.013-0.041l-15.251-6.754c-0.406,0.718-1.263,1.043-2.045,0.786  c-0.912-0.298-1.41-1.273-1.111-2.188c0.301-0.908,1.28-1.403,2.192-1.104s1.405,1.28,1.108,2.188l15.244,6.755  c0.021-0.04,0.044-0.074,0.067-0.108L36.867,19.436c-0.599,0.563-1.518,0.63-2.188,0.156c-0.786-0.549-0.973-1.633-0.42-2.419  c0.548-0.779,1.632-0.969,2.415-0.42c0.782,0.555,0.972,1.632,0.42,2.418l11.765,10.19l-9.823-13.267  c-0.706,0.42-1.613,0.285-2.168-0.325c-0.643-0.711-0.593-1.809,0.115-2.453c0.711-0.643,1.81-0.589,2.453,0.116  c0.644,0.711,0.589,1.809-0.119,2.453l9.889,13.36c0.089-0.061,0.184-0.115,0.278-0.163L45.606,9.903  c-0.822,0.082-1.585-0.427-1.829-1.213c-0.284-0.914,0.231-1.89,1.145-2.167c0.915-0.285,1.884,0.23,2.169,1.145  c0.28,0.915-0.23,1.883-1.146,2.168l3.868,19.14c0.137-0.027,0.278-0.047,0.413-0.04l0.794-14.228  c-0.817-0.122-1.431-0.806-1.464-1.633c-0.044-0.955,0.697-1.768,1.652-1.809c0.956-0.041,1.77,0.698,1.81,1.653  c0.045,0.956-0.697,1.769-1.653,1.809l-0.793,14.248c0.055,0.014,0.105,0.027,0.156,0.041l5.434-13.029  c-0.724-0.393-1.073-1.247-0.833-2.033c0.278-0.915,1.246-1.436,2.161-1.158c0.918,0.285,1.437,1.253,1.158,2.168  c-0.277,0.915-1.246,1.429-2.164,1.152l-5.438,13.042c0.061,0.034,0.119,0.074,0.177,0.115l8.354-9.262  c-0.557-0.609-0.601-1.524-0.113-2.188c0.566-0.772,1.654-0.935,2.426-0.373c0.77,0.569,0.939,1.653,0.369,2.426  c-0.569,0.772-1.653,0.942-2.425,0.372l-8.354,9.255c0.027,0.034,0.055,0.061,0.082,0.095l13.302-8.395  c-0.368-0.739-0.165-1.64,0.485-2.147c0.752-0.589,1.843-0.454,2.432,0.305c0.59,0.752,0.458,1.843-0.297,2.432  c-0.753,0.59-1.843,0.454-2.433-0.298L51.744,29.89c0.042,0.088,0.078,0.17,0.105,0.257l13.293-2.737  c0.085-0.203,0.207-0.393,0.359-0.549c0.667-0.684,1.765-0.698,2.452-0.034l0.904-0.183c-0.08-0.827,0.421-1.592,1.207-1.836  c0.915-0.285,1.89,0.223,2.174,1.138c0.288,0.915-0.224,1.884-1.134,2.168c-0.915,0.292-1.887-0.217-2.176-1.131l-0.728,0.149  c0.236,0.359,0.325,0.799,0.254,1.227c-0.159,0.942-1.054,1.579-1.996,1.422c-0.948-0.156-1.585-1.05-1.423-1.998l-13.116,2.703  c0.011,0.115,0.011,0.23,0,0.338l14.801,2.87c0.237-0.796,0.999-1.305,1.818-1.23c0.956,0.088,1.657,0.928,1.568,1.883  c-0.084,0.956-0.932,1.657-1.887,1.572c-0.951-0.088-1.652-0.932-1.564-1.887l-14.8-2.869c-0.011,0.027-0.017,0.054-0.027,0.082  l14.001,6.605c-0.048-0.613,0.23-1.206,0.731-1.559c0.786-0.548,1.87-0.358,2.418,0.428c0.55,0.782,0.36,1.862-0.426,2.415  l0.677,0.319c0.428-0.708,1.288-1.017,2.067-0.742c0.9,0.318,1.375,1.311,1.057,2.212c-0.322,0.904-1.315,1.378-2.216,1.057  c-0.901-0.318-1.376-1.311-1.058-2.212l-0.911-0.43c-0.017,0.003-0.033,0.01-0.051,0.017c-0.907,0.309-1.89-0.173-2.202-1.081  l-14.233-6.71c-0.059,0.088-0.122,0.176-0.189,0.257l11.341,11.633c0.644-0.511,1.563-0.501,2.195,0.031  c0.731,0.613,0.826,1.707,0.213,2.442c-0.616,0.735-1.71,0.83-2.441,0.213c-0.735-0.617-0.834-1.71-0.217-2.443l-11.35-11.646  c-0.107,0.088-0.229,0.156-0.358,0.21l4.841,14.024c0.803-0.19,1.63,0.21,1.975,0.962c0.399,0.867,0.021,1.901-0.851,2.3  c-0.87,0.403-1.899,0.021-2.3-0.847c-0.402-0.871-0.023-1.9,0.848-2.303l-4.842-14.035C50.539,32.37,50.539,32.37,50.539,32.37z"></path></svg>