<svg xmlns="http://www.w3.org/2000/svg" xmlns:xlink="http://www.w3.org/1999/xlink" version="1.1" x="0px" y="0px" viewBox="0 0 100 100" enable-background="new 0 0 100 100" xml:space="preserve"><g><g><path d="M99.439,24.632L50.259,8.239c-0.169-0.056-0.35-0.056-0.519,0L0.561,24.632c-0.429,0.144-0.662,0.607-0.518,1.037    l2.459,7.377c0.143,0.429,0.606,0.663,1.037,0.518l4.659-1.553v54.873c0,0.453,0.367,0.82,0.819,0.82h3.279v3.279    c0,0.453,0.367,0.819,0.82,0.819h73.77c0.453,0,0.82-0.367,0.82-0.819v-3.279h3.279c0.453,0,0.819-0.367,0.819-0.82V32.012    l4.659,1.553c0.086,0.029,0.174,0.042,0.26,0.042c0.343,0,0.663-0.217,0.777-0.561l2.459-7.377    C100.101,25.24,99.869,24.776,99.439,24.632z M86.065,90.164H13.935v-2.459h40.164h4.099h20.492h4.098h3.279V90.164z     M59.016,86.065V38.525h18.853v47.541H59.016z M79.508,38.525h2.459v47.541h-2.459V38.525z M81.967,36.885h-3.278H58.197h-3.279    v-2.459h27.049V36.885z M54.918,38.525h2.459v47.541h-2.459V38.525z M90.164,86.065h-3.279h-3.278v-48.36v-4.098    c0-0.453-0.367-0.82-0.82-0.82H54.098c-0.453,0-0.819,0.367-0.819,0.82v4.098v48.36H13.115H9.836v-54.6l14.754-4.918v2.961    c0,0.453,0.367,0.82,0.82,0.82s0.819-0.367,0.819-0.82v-3.507l22.951-7.65v2.961c0,0.453,0.367,0.82,0.82,0.82    s0.82-0.367,0.82-0.82v-2.961l22.951,7.65v3.507c0,0.453,0.367,0.82,0.819,0.82s0.82-0.367,0.82-0.82v-2.961l14.754,4.918V86.065z     M96.203,31.75L50.259,16.436c-0.084-0.028-0.172-0.042-0.259-0.042c-0.088,0-0.175,0.014-0.259,0.042L3.797,31.75l-1.94-5.822    L50,9.881l48.143,16.047L96.203,31.75z"></path><path d="M41.803,32.787h-24.59c-0.453,0-0.82,0.367-0.82,0.82v32.787c0,0.453,0.367,0.819,0.82,0.819h24.59    c0.453,0,0.82-0.367,0.82-0.819V33.607C42.623,33.154,42.256,32.787,41.803,32.787z M22.131,61.475v-6.557h6.557v6.557H22.131z     M36.885,38.525v6.557h-6.557v-6.557H36.885z M22.131,46.721h6.557v6.558h-6.557V46.721z M30.328,46.721h6.557v6.558h-6.557    V46.721z M28.688,45.082h-6.557v-6.557h6.557V45.082z M30.328,54.918h6.557v6.557h-6.557V54.918z M37.705,36.885H21.312h-3.278    v-2.459h22.951v2.459H37.705z M18.033,38.525h2.459v23.77v3.279h-2.459V38.525z M22.131,63.115h14.754v2.459H22.131V63.115z     M38.525,62.295v-23.77h2.459v27.049h-2.459V62.295z"></path><path d="M66.393,61.475h-4.098c-0.453,0-0.82,0.367-0.82,0.82s0.367,0.82,0.82,0.82h4.098c0.453,0,0.82-0.367,0.82-0.82    S66.846,61.475,66.393,61.475z"></path></g></g></svg>