<svg xmlns="http://www.w3.org/2000/svg" xmlns:xlink="http://www.w3.org/1999/xlink" version="1.1" x="0px" y="0px" viewBox="0 0 100 100" enable-background="new 0 0 100 100" xml:space="preserve"><g><path fill="#000000" d="M45.29,88.223H31.622c-2.175,0-3.944,1.771-3.944,3.945v3.406h21.556v-3.406   C49.234,89.992,47.464,88.223,45.29,88.223z M48.234,94.574H28.678v-2.406c0-1.624,1.321-2.945,2.944-2.945H45.29   c1.624,0,2.944,1.321,2.944,2.945V94.574z"></path><path fill="#000000" d="M55.23,69.573c-0.106-0.021-0.211-0.015-0.314-0.017c0.119-0.394,0.154-0.808,0.077-1.234   c-0.345-1.906-4.578-4.857-6.969-4.857c-0.297,0-0.566,0.045-0.799,0.135c-0.28,0.105-0.52,0.262-0.74,0.44   c-0.087-0.296-0.202-0.587-0.375-0.863c-0.85-1.352-3.478-2.157-5.526-2.157c-0.864,0-2.058,0.138-2.836,0.795   c-0.17,0.144-0.314,0.303-0.448,0.468c-0.154-0.273-0.376-0.511-0.658-0.687c-0.252-0.16-0.586-0.24-0.995-0.24   c-2.184,0-7.327,2.541-7.757,4.535c-0.028,0.129-0.029,0.254-0.039,0.381c-0.219-0.086-0.451-0.139-0.696-0.139l-0.106,0.002   c-0.942,0.049-2.09,1.27-2.888,2.286c-0.905,1.153-2.552,3.675-2.306,4.958c0.031,0.16,0.085,0.311,0.15,0.452   c-0.085,0.026-0.172,0.042-0.255,0.08c-1.146,0.526-1.531,2.651-1.621,3.289c-0.2,1.409-0.132,3.159,0.657,3.841   c0.359,0.311,0.791,0.475,1.25,0.475c0.018,0,0.036-0.008,0.053-0.008c-0.018,0.094-0.029,0.188-0.029,0.286v2.313   c0,0.838,0.683,1.521,1.522,1.521h6.775c0.388,0,0.739-0.149,1.008-0.392c0.269,0.24,0.62,0.392,1.008,0.392h6.774   c0.382,0,0.727-0.146,0.994-0.379c0.268,0.231,0.612,0.379,0.994,0.379h6.774c0.395,0,0.752-0.153,1.023-0.401   c0.271,0.248,0.628,0.401,1.022,0.401h6.774c0.838,0,1.521-0.683,1.521-1.521v-2.313c0-0.294-0.088-0.567-0.232-0.801   c0.164-0.11,0.317-0.239,0.446-0.402c0.955-1.202,0.206-5.325-0.676-7.714C57.049,70.871,56.188,69.76,55.23,69.573z    M48.932,80.674c-0.271-0.248-0.628-0.402-1.023-0.402h-6.774c-0.382,0-0.727,0.146-0.994,0.379   c-0.268-0.232-0.612-0.379-0.994-0.379h-6.774c-0.388,0-0.739,0.15-1.008,0.392c-0.269-0.24-0.62-0.392-1.008-0.392h-4.226   l5.902-2.439h15.156l5.325,2.439h-2.559C49.56,80.271,49.202,80.426,48.932,80.674z M32.473,76.831   c0.409-3.608,3.451-6.366,7.141-6.366c3.69,0,6.733,2.758,7.143,6.366H32.473z M47.768,76.996   c-0.339-4.246-3.857-7.531-8.154-7.531c-4.293,0-7.807,3.279-8.151,7.52l-6.351,2.625c0.185-1.045,0.532-2.659,0.841-3.506   c1.117-2.6,2.678-4.664,4.642-6.14v-0.001c1.968-1.473,4.168-2.398,6.539-2.75l0.006-0.002c2.752-0.43,5.481-0.115,8.131,0.939   c2.309,1.115,4.422,2.834,6.281,5.108l0.017,0.021c1.324,1.59,1.947,4.203,2.32,6.521L47.768,76.996z M47.579,64.533   c0.12-0.045,0.27-0.068,0.445-0.068c2.01,0,5.748,2.717,5.985,4.035c0.087,0.477-0.014,0.896-0.305,1.285l-0.858,1.148   l-0.914,1.221c-1.758-2.043-3.726-3.629-5.864-4.728l0.435-1.543l0,0l0.071-0.253C46.721,65.105,47.068,64.727,47.579,64.533z    M38.392,62.578c0.427-0.361,1.205-0.561,2.191-0.561c1.96,0,4.103,0.774,4.68,1.69c0.372,0.591,0.464,1.231,0.277,1.903   l-0.224,0.798l-0.175,0.618c-1.84-0.668-3.722-1.006-5.604-1.006c-0.652,0-1.314,0.039-1.976,0.121v-0.014l-0.009-1.732   C37.549,63.664,37.832,63.051,38.392,62.578z M28.866,66.104c0.272-1.262,4.771-3.748,6.78-3.748c0.294,0,0.421,0.061,0.462,0.086   c0.284,0.179,0.436,0.451,0.438,0.787l0.006,1.176c0,0.003,0,0.004,0,0.005l0.006,1.11l0.004,0.773   c-2.224,0.393-4.3,1.264-6.184,2.593l-1.166-1.376C28.875,67.105,28.754,66.619,28.866,66.104z M24.946,69.038   c1.008-1.284,1.822-1.888,2.208-1.905c0.283,0,0.521,0.111,0.708,0.33l0.588,0.694c0.003,0.004,0.005,0.009,0.008,0.013l1.12,1.32   c-1.775,1.441-3.219,3.349-4.303,5.68l-1.634-1.104c-0.006-0.006-0.013-0.006-0.02-0.01l-0.389-0.264   c-0.221-0.148-0.347-0.341-0.396-0.604C22.729,72.635,23.569,70.793,24.946,69.038z M21.438,80.285   c-0.323-0.279-0.532-1.457-0.321-2.945c0.203-1.432,0.681-2.352,1.049-2.52c0.131-0.062,0.265-0.092,0.397-0.092   c0.174,0,0.343,0.055,0.5,0.156l1.829,1.232c-0.365,1.162-0.73,3.002-0.86,3.896l-1.74,0.467   C21.981,80.564,21.685,80.498,21.438,80.285z M30.355,84.629H23.58c-0.288,0-0.522-0.234-0.522-0.521v-2.313   c0-0.288,0.234-0.521,0.522-0.521h6.775c0.255,0,0.458,0.188,0.503,0.431c-0.002,0.03-0.009,0.062-0.009,0.092v2.313   c0,0.031,0.007,0.061,0.009,0.092C30.814,84.441,30.61,84.629,30.355,84.629z M39.146,84.629h-6.774   c-0.255,0-0.459-0.188-0.504-0.43c0.002-0.031,0.009-0.061,0.009-0.092v-2.313c0-0.03-0.007-0.062-0.009-0.092   c0.045-0.243,0.249-0.431,0.504-0.431h6.774c0.222,0,0.409,0.141,0.484,0.338c-0.007,0.061-0.019,0.121-0.019,0.185v2.313   c0,0.063,0.011,0.123,0.019,0.185C39.556,84.488,39.369,84.629,39.146,84.629z M47.909,84.629h-6.774   c-0.223,0-0.41-0.141-0.485-0.337c0.007-0.062,0.019-0.121,0.019-0.185v-2.313c0-0.063-0.011-0.124-0.019-0.185   c0.075-0.197,0.262-0.338,0.485-0.338h6.774c0.289,0,0.523,0.233,0.523,0.521v2.313C48.432,84.395,48.197,84.629,47.909,84.629z    M57.251,84.107c0,0.287-0.233,0.521-0.522,0.521h-6.773c-0.288,0-0.522-0.233-0.522-0.521v-2.313c0-0.288,0.234-0.522,0.522-0.522   h6.162c0.287,0.025,0.563,0.047,0.775,0.054h0.059c0.176,0.084,0.301,0.262,0.301,0.47L57.251,84.107L57.251,84.107z    M57.682,79.971c-0.166,0.209-0.384,0.312-0.637,0.334c-0.104-0.021-0.208-0.033-0.316-0.033h-0.571   c-0.134-0.012-0.265-0.022-0.4-0.037c-0.274-0.024-0.551-0.051-0.797-0.069c-0.38-2.556-0.979-5.321-2.375-7.212l1.526-2.04   c0.221-0.296,0.561-0.431,0.928-0.356c0.432,0.084,1.134,0.828,1.813,2.668C57.936,76.158,58.129,79.404,57.682,79.971z"></path><path fill="#000000" d="M46.903,19.249c0.027,0.004,0.053,0.006,0.08,0.006c0.241,0,0.454-0.175,0.493-0.421   c1.261-7.851,3.395-8.301,6.625-8.983c1.498-0.316,3.196-0.675,5.068-1.807c2.428-1.466,3.963-1.301,5.738-1.114   c2.133,0.228,4.549,0.486,8.783-2.02c0.386-0.228,1.045-0.243,1.811-0.259c1.725-0.038,4.086-0.089,6.338-2.505   c0.188-0.202,0.178-0.519-0.025-0.707c-0.199-0.188-0.518-0.178-0.705,0.025c-1.965,2.107-3.996,2.151-5.629,2.187   c-0.904,0.02-1.688,0.037-2.299,0.398c-3.949,2.335-6.096,2.106-8.166,1.886c-1.877-0.199-3.647-0.389-6.363,1.252   c-1.727,1.044-3.336,1.384-4.758,1.684c-3.373,0.711-6.037,1.274-7.406,9.803C46.444,18.949,46.63,19.205,46.903,19.249z"></path><path fill="#000000" d="M91.4,1.603c-0.082-0.264-0.361-0.41-0.627-0.328c-0.17,0.054-0.373,0.098-0.604,0.148   c-1.566,0.342-4.484,0.979-8.395,6.202c-2.135,2.849-3.394,2.393-5.297,1.702c-1.681-0.611-3.771-1.37-6.791,0.365   c-2.201,1.261-4.041,1.468-5.666,1.65c-2.354,0.264-4.215,0.473-5.197,3.886c-0.076,0.265,0.076,0.542,0.343,0.619   c0.046,0.013,0.093,0.02,0.138,0.02c0.219,0,0.418-0.143,0.48-0.362c0.798-2.77,2.059-2.911,4.348-3.168   c1.637-0.184,3.672-0.412,6.053-1.777c2.619-1.505,4.314-0.888,5.953-0.292c1.896,0.688,3.856,1.402,6.438-2.042   c3.688-4.925,6.266-5.488,7.807-5.825c0.264-0.058,0.494-0.109,0.69-0.17C91.337,2.147,91.482,1.866,91.4,1.603z"></path><path fill="#000000" d="M66.09,54.189c-1.332-0.752-2.096-2.06-2.096-3.586V30.874h0.783c0.672,0,1.218-0.546,1.218-1.217v-3.473   c0-0.26-0.101-0.487-0.239-0.685c0.141-0.198,0.239-0.426,0.239-0.686v-3.472c0-0.671-0.546-1.218-1.218-1.218h-3.021   c-0.234,0-0.439,0.084-0.627,0.2c-0.208-0.166-0.46-0.279-0.745-0.279h-7.479c-0.24,0-0.451,0.088-0.641,0.208   c-0.176-0.125-0.38-0.215-0.611-0.215h-9.818c-0.59,0-1.07,0.48-1.07,1.07v3.767c0,0.248,0.099,0.466,0.241,0.648   c-0.14,0.198-0.241,0.427-0.241,0.688v3.472c0,0.671,0.545,1.217,1.216,1.217h0.783v22.724H18.715   c-5.591,0-10.14,4.548-10.14,10.141v28.432c0,3.613,2.939,6.553,6.552,6.553h46.656c3.611,0,6.552-2.939,6.552-6.553V58.023   C68.336,56.439,67.475,54.973,66.09,54.189z M64.995,29.656c0,0.118-0.099,0.217-0.218,0.217h-4.735   c-0.117,0-0.217-0.1-0.217-0.217v-3.473c0-0.118,0.1-0.217,0.217-0.217h1.396c0.104,0.029,0.207,0.064,0.318,0.064h3.021   c0.037,0,0.068-0.018,0.104-0.021c0.064,0.039,0.114,0.096,0.114,0.174V29.656z M50.673,26.193   c0.007-0.112,0.099-0.206,0.214-0.206h7.979c-0.012,0.066-0.04,0.127-0.04,0.196v3.473c0,0.084,0.032,0.159,0.049,0.238h-7.987   c-0.113,0-0.203-0.092-0.212-0.202c0-0.003,0.002-0.006,0.002-0.01V26.21C50.677,26.204,50.673,26.199,50.673,26.193z    M61.756,21.123h3.021c0.119,0,0.218,0.1,0.218,0.218v3.472c0,0.078-0.05,0.136-0.114,0.174c-0.035-0.003-0.066-0.021-0.104-0.021   h-3.174c-0.021-0.021-0.022-0.053-0.035-0.08c0.008-0.053,0.031-0.1,0.031-0.154V21.26c0-0.016-0.008-0.029-0.009-0.045   C61.632,21.163,61.688,21.123,61.756,21.123z M52.904,21.043h7.479c0.09,0,0.153,0.064,0.188,0.144   c-0.008,0.053-0.031,0.099-0.031,0.154v3.472c0,0.016,0.008,0.029,0.009,0.045c-0.04,0.052-0.095,0.092-0.164,0.092h-7.479   c-0.084,0-0.146-0.059-0.182-0.132v-3.643C52.758,21.102,52.818,21.043,52.904,21.043z M41.833,21.037l9.883,0.07   c-0.007,0.052-0.03,0.099-0.03,0.153v3.472c0,0.053,0.023,0.097,0.029,0.148c-0.005,0.033-0.029,0.064-0.063,0.064l-9.889-0.07   L41.833,21.037z M41.764,29.683V26.21c0-0.118,0.099-0.217,0.216-0.217h7.479c0.112,0,0.202,0.092,0.211,0.202   c0,0.003-0.002,0.006-0.002,0.009v3.473c0,0.006,0.003,0.011,0.003,0.017c-0.007,0.113-0.097,0.206-0.212,0.206H41.98   C41.861,29.9,41.764,29.802,41.764,29.683z M67.336,92.195c0,3.062-2.49,5.553-5.552,5.553H15.128   c-3.062,0-5.552-2.491-5.552-5.553V63.764c0-5.039,4.1-9.14,9.14-9.14h25.048V30.9h5.696c0.273,0,0.514-0.107,0.717-0.26   c0.202,0.149,0.439,0.255,0.71,0.255h9.523c0.056,0,0.107-0.013,0.16-0.021h2.424v19.729c0,1.898,0.949,3.522,2.604,4.459   c1.072,0.604,1.738,1.738,1.738,2.961V92.195z"></path></g></svg>