<svg xmlns="http://www.w3.org/2000/svg" xmlns:xlink="http://www.w3.org/1999/xlink" version="1.1" x="0px" y="0px" viewBox="0 0 100 100" enable-background="new 0 0 100 100" xml:space="preserve"><g><g><g><g><path fill="#000000" d="M80.895,49.317c0.408-0.52,0.715-0.816,0.847-0.938h0.011C81.456,48.674,81.17,48.991,80.895,49.317z"></path></g><g><path fill="#000000" d="M81.395,48.012c-0.826,0.826-1.55,1.744-2.183,2.753C80.222,49.113,81.109,48.256,81.395,48.012z"></path></g><g><path fill="#000000" d="M75.785,64.258c0.459-5.059,1.724-10.556,4.712-14.431C78.968,51.918,76.551,56.364,75.785,64.258z"></path></g><g><path fill="#000000" d="M78.682,51.683c-0.469,0.857-0.958,1.887-1.407,3.111C77.662,53.713,78.131,52.662,78.682,51.683z"></path></g><g><path fill="#000000" d="M76.815,56.14c-0.071,0.214-0.133,0.429-0.193,0.643C76.683,56.558,76.744,56.344,76.815,56.14z"></path></g><g><path fill="#000000" d="M77.152,78.454c-0.5,0-1.081-0.428-1.367-0.673c0.062-0.051,0.112-0.102,0.174-0.163      s0.081-0.143,0.071-0.225c0-0.01,0-0.03-0.01-0.081c0.336,0.315,0.999,0.754,1.274,0.602c0.03-0.021,0.062-0.031,0.102-0.031      c0.021,0,2.01-0.234,3.794-5.313c0.041-0.102,0.133-0.163,0.245-0.163c0,0,0,0,0.01,0c0.103,0,0.204,0.071,0.235,0.184      c0.499,1.744,2.172,6.344,3.926,6.599c0.052,0.011,0.071,0.021,0.123,0.021c0.275,0,1.683-0.306,2.447-6.323      c0.01-0.112,0.092-0.193,0.193-0.225c0.112-0.02,0.215,0.031,0.275,0.123c0.031,0.04,3.05,4.926,5.283,4.731      c-0.021,0,1.03-0.459,1.03-3.559c0-0.918-0.092-2.07-0.337-3.519c-0.061-0.194-6.313-21.917-12.87-22.06      c0.021-0.021,0.051-0.051,0.071-0.072c0.051-0.051,0.081-0.112,0.081-0.173c0-0.041,0-0.122,0-0.245      c6.895,0.5,12.952,21.529,13.218,22.437c1.132,6.792-0.867,7.608-1.102,7.68c-0.112,0.021-0.163,0.021-0.225,0.021      c-2.019,0-4.313-3.08-5.211-4.396c-0.765,5.272-2.111,6.088-2.855,6.088c-0.144,0-0.225-0.03-0.245-0.041      c-1.938-0.275-3.509-4.497-4.069-6.23c-1.713,4.385-3.569,4.885-3.927,4.936C77.387,78.434,77.274,78.454,77.152,78.454z"></path></g><g><path fill="#000000" d="M75.562,70.367c0.03,2.101,0.173,4.375,0.448,6.854C75.918,76.526,75.602,73.875,75.562,70.367z"></path></g><g><path fill="#000000" d="M75.571,68.042c-0.01,0.397-0.021,0.795-0.021,1.213C75.551,68.857,75.562,68.46,75.571,68.042z"></path></g><g><path fill="#000000" d="M80.497,49.827c-2.988,3.875-4.253,9.373-4.712,14.431c-0.112,1.173-0.184,2.438-0.214,3.784      c-0.01,0.418-0.021,0.815-0.021,1.213c0,0.357,0,0.734,0.011,1.112c0.04,3.508,0.356,6.159,0.448,6.854      c0,0.03,0.011,0.061,0.011,0.092c0.01,0.051,0.01,0.071,0.01,0.081c0.01,0.082-0.01,0.163-0.071,0.225s-0.112,0.112-0.174,0.163      c-0.102-0.082-0.163-0.153-0.184-0.174c-0.04-0.04-0.071-0.092-0.071-0.152c-0.173-1.51-0.296-2.947-0.377-4.324      c-0.03-0.541-0.062-1.061-0.071-1.581c-0.123-4.09,0.081-9.699,1.54-14.768c0.061-0.214,0.122-0.429,0.193-0.643      c0.143-0.469,0.296-0.918,0.459-1.346c0.449-1.225,0.938-2.254,1.407-3.111c0.174-0.336,0.347-0.632,0.53-0.917      c0.633-1.01,1.356-1.928,2.183-2.753c0.051-0.041,0.082-0.072,0.092-0.082c0.041-0.041,0.103-0.061,0.163-0.061      c0.082,0,0.174,0,0.255,0.021c0,0.123,0,0.204,0,0.245c0,0.062-0.03,0.123-0.081,0.173c-0.021,0.021-0.051,0.051-0.071,0.072      h-0.011c-0.132,0.122-0.438,0.418-0.847,0.938C80.763,49.47,80.63,49.643,80.497,49.827z"></path></g><g><path fill="#000000" d="M68.045,83.411c2.529-1.683,5.018-3.713,7.465-6.079c-0.061-0.438-0.255-1.998-0.356-4.201      c0.081,1.377,0.204,2.814,0.377,4.324c0,0.061,0.031,0.112,0.071,0.152c0.021,0.021,0.082,0.092,0.184,0.174      c-2.621,2.529-5.282,4.661-7.985,6.404c0.031-0.03,0.062-0.071,0.071-0.122C67.933,83.839,67.994,83.625,68.045,83.411z"></path></g><g><path fill="#000000" d="M76.622,56.782c-1.459,5.068-1.663,10.678-1.54,14.768C74.848,65.166,75.571,60.352,76.622,56.782z"></path></g><g><path fill="#000000" d="M67.759,84.217c-0.377,0.296-4.559,3.416-11.126,4.926C60.396,88.215,64.118,86.572,67.759,84.217z"></path></g><g><path fill="#000000" d="M56.011,88.765c3.865-0.887,7.669-2.539,11.412-4.946c0,0.011-0.011,0.021-0.011,0.031      C66.842,84.268,62.578,87.357,56.011,88.765z"></path></g><g><path fill="#000000" d="M61.926,38.017c0-0.714-0.653-1.306-1.448-1.306c-0.796,0-1.438,0.592-1.438,1.306      c0,0.724,0.643,1.315,1.438,1.315C61.272,39.333,61.926,38.741,61.926,38.017z M58.529,38.017c0-1,0.877-1.815,1.948-1.815      c1.081,0,1.958,0.816,1.958,1.815c0,1.009-0.877,1.825-1.958,1.825C59.406,39.842,58.529,39.026,58.529,38.017z"></path></g><g><path fill="#000000" d="M60.896,74.304c1.703-0.163,2.743-2.203,2.754-2.224c0.071-0.133,0.225-0.184,0.347-0.122      c0.122,0.071,0.173,0.225,0.112,0.347c-0.051,0.092-1.184,2.315-3.172,2.509c-0.082,0.01-0.174,0.01-0.266,0.01      c-1.254,0-2.529-0.826-3.804-2.478c-0.082-0.112-0.062-0.275,0.051-0.357c0.112-0.081,0.266-0.062,0.357,0.051      C58.52,73.65,59.733,74.416,60.896,74.304z"></path></g><g><path fill="#000000" d="M62.629,34.162c-3.905,0-7.098,3.07-7.098,6.843c0,3.784,3.192,6.864,7.098,6.864      c3.917,0,7.108-3.08,7.108-6.864C69.737,37.231,66.546,34.162,62.629,34.162z M55.021,41.005c0-4.049,3.416-7.353,7.607-7.353      c4.202,0,7.619,3.304,7.619,7.353c0,4.069-3.417,7.374-7.619,7.374C58.438,48.379,55.021,45.074,55.021,41.005z"></path></g><g><path fill="#000000" d="M53.604,40.23c0,6.323,5.141,11.473,11.474,11.473c6.323,0,11.463-5.15,11.463-11.473      S71.4,28.767,65.077,28.767C58.744,28.767,53.604,33.907,53.604,40.23z M65.077,52.213c-6.608,0-11.983-5.374-11.983-11.983      c0-6.599,5.375-11.973,11.983-11.973c6.599,0,11.973,5.375,11.973,11.973C77.05,46.839,71.676,52.213,65.077,52.213z"></path></g><g><path fill="#000000" d="M51.125,80.249c-0.092-0.112-0.071-0.265,0.041-0.356c0.112-0.082,0.275-0.062,0.357,0.051      c1.254,1.611,2.468,2.387,3.62,2.274c1.713-0.174,2.754-2.213,2.764-2.233c0.062-0.133,0.214-0.174,0.337-0.112      c0.133,0.062,0.184,0.214,0.112,0.336c-0.041,0.092-1.173,2.315-3.162,2.51c-0.092,0.01-0.184,0.02-0.275,0.02      C53.665,82.737,52.39,81.901,51.125,80.249z"></path></g><g><path fill="#000000" d="M52.553,45.197c-0.459-0.245-1.662-0.826-3.151-0.826c-1.03,0-1.999,0.275-2.896,0.826l3.029,6.313      L52.553,45.197z M49.3,52.213l-3.355-7.006c-0.051-0.112-0.01-0.255,0.092-0.327c1.03-0.673,2.162-1.02,3.366-1.02      c2.04,0,3.559,0.979,3.621,1.02c0.102,0.072,0.143,0.214,0.092,0.327l-3.355,7.006c-0.041,0.092-0.133,0.144-0.225,0.144      C49.432,52.356,49.34,52.305,49.3,52.213z"></path></g><g><path fill="#000000" d="M45.74,72.039c1.245,1.611,2.468,2.377,3.61,2.265c1.714-0.163,2.754-2.203,2.764-2.224      c0.062-0.133,0.215-0.184,0.337-0.122c0.133,0.071,0.184,0.225,0.122,0.347c-0.051,0.092-1.183,2.315-3.171,2.509      c-0.092,0.01-0.184,0.01-0.265,0.01c-1.254,0-2.529-0.826-3.804-2.478c-0.082-0.112-0.061-0.275,0.051-0.357      C45.496,71.896,45.648,71.917,45.74,72.039z"></path></g><g><path fill="#000000" d="M49.279,89.53c-6.751,0-12.636-2.325-17.113-4.957c5.66,3.243,11.474,4.886,17.317,4.886      c2.233,0,4.304-0.245,6.201-0.622C53.563,89.296,51.432,89.53,49.279,89.53z"></path></g><g><path fill="#000000" d="M49.279,90.04c-6.354,0-11.932-2.02-16.338-4.437c5.415,2.896,10.963,4.365,16.542,4.365      c2.601,0,5.008-0.326,7.149-0.826C54.205,89.744,51.747,90.04,49.279,90.04z"></path></g><g><path fill="#000000" d="M43.874,82.718c-0.092,0.01-0.184,0.02-0.275,0.02c-1.254,0-2.529-0.836-3.804-2.488      c-0.082-0.112-0.062-0.265,0.051-0.356c0.112-0.082,0.275-0.062,0.357,0.051c1.244,1.611,2.458,2.376,3.621,2.274      c1.703-0.174,2.743-2.213,2.753-2.233c0.071-0.133,0.225-0.174,0.347-0.112c0.123,0.062,0.173,0.214,0.112,0.336      C46.995,80.3,45.853,82.534,43.874,82.718z"></path></g><g><path fill="#000000" d="M40.835,72.305c-0.051,0.092-1.183,2.315-3.172,2.509c-0.092,0.01-0.173,0.01-0.265,0.01      c-1.254,0-2.529-0.826-3.804-2.478c-0.082-0.112-0.061-0.275,0.051-0.357c0.112-0.092,0.265-0.071,0.357,0.051      c1.244,1.611,2.468,2.377,3.61,2.265c1.703-0.163,2.753-2.203,2.764-2.224c0.061-0.133,0.214-0.184,0.347-0.122      C40.845,72.029,40.896,72.183,40.835,72.305z"></path></g><g><path fill="#000000" d="M31.799,84.359c-0.306-0.174-0.602-0.357-0.908-0.541c0-0.01-0.01-0.02-0.01-0.03      C31.177,83.982,31.483,84.165,31.799,84.359z"></path></g><g><path fill="#000000" d="M30.463,84.125c0.755,0.489,1.561,0.969,2.407,1.438c-0.775-0.418-1.54-0.866-2.315-1.346      C30.524,84.186,30.483,84.155,30.463,84.125z"></path></g><g><path fill="#000000" d="M30.942,37.578c0-0.999,0.877-1.825,1.958-1.825s1.958,0.826,1.958,1.825c0,1-0.877,1.815-1.958,1.815      S30.942,38.578,30.942,37.578z M32.9,36.263c-0.795,0-1.448,0.592-1.448,1.315c0,0.714,0.653,1.306,1.448,1.306      s1.448-0.591,1.448-1.306C34.349,36.854,33.696,36.263,32.9,36.263z"></path></g><g><path fill="#000000" d="M31.799,84.359c0.123,0.071,0.245,0.143,0.367,0.214c4.478,2.632,10.362,4.957,17.113,4.957      c2.152,0,4.283-0.234,6.405-0.693c0.102-0.031,0.214-0.052,0.326-0.072c6.567-1.407,10.831-4.497,11.401-4.915      c0-0.011,0.011-0.021,0.011-0.031c0.214-0.132,0.418-0.265,0.622-0.407c-0.051,0.214-0.112,0.428-0.174,0.652      c-0.01,0.051-0.04,0.092-0.071,0.122l-0.01,0.011c0,0-0.011,0.01-0.031,0.021c-3.641,2.355-7.363,3.998-11.126,4.926      c-2.142,0.5-4.549,0.826-7.149,0.826c-5.579,0-11.127-1.469-16.542-4.365c-0.021-0.021-0.041-0.03-0.072-0.041      c-0.846-0.469-1.652-0.948-2.407-1.438c0-0.011-0.01-0.011-0.01-0.021c-0.01-0.011-0.132-0.296-0.316-0.806      c0.245,0.163,0.489,0.326,0.745,0.489c0,0.011,0.01,0.021,0.01,0.03C31.197,84.002,31.493,84.186,31.799,84.359z"></path></g><g><path fill="#000000" d="M30.565,70.01c-2.642,6.456-0.061,12.911,0.316,13.778c-0.255-0.163-0.5-0.326-0.745-0.489      c-0.745-2.061-2.376-7.762-0.051-13.473c2.009-4.936,6.425-8.709,13.105-11.219c0.122-0.04,2.601-0.806,5.803-0.806      c1.887,0,3.63,0.275,5.17,0.806c0.072,0.011,8.394,2.214,12.494,9.362c2.478,4.314,2.947,9.506,1.387,15.441      c-0.204,0.143-0.408,0.275-0.622,0.407c1.683-6.037,1.285-11.279-1.204-15.593c-3.997-6.956-12.115-9.118-12.197-9.139      c-1.509-0.51-3.192-0.774-5.028-0.774c-3.121,0-5.609,0.765-5.629,0.774C36.827,61.545,32.513,65.227,30.565,70.01z"></path></g><g><path fill="#000000" d="M27.566,41.005c0-4.049,3.417-7.353,7.608-7.353c4.202,0,7.618,3.304,7.618,7.353      c0,4.069-3.417,7.374-7.618,7.374C30.983,48.379,27.566,45.074,27.566,41.005z M35.175,34.162c-3.917,0-7.098,3.07-7.098,6.843      c0,3.784,3.182,6.864,7.098,6.864c3.916,0,7.108-3.08,7.108-6.864C42.283,37.231,39.091,34.162,35.175,34.162z"></path></g><g><path fill="#000000" d="M22.957,77.343c0.458,0.5,3.039,3.223,7.18,5.956c0.184,0.51,0.306,0.795,0.316,0.806      c0,0.01,0.01,0.01,0.01,0.021c-4.345-2.774-7.139-5.64-7.802-6.354c0.122-0.082,0.184-0.133,0.194-0.144      c0.051-0.051,0.082-0.112,0.092-0.184C22.947,77.414,22.947,77.373,22.957,77.343z"></path></g><g><path fill="#000000" d="M22.947,77.332c0.204-10.535-0.928-17.419-2.295-21.855c1.571,4.6,2.855,11.606,2.305,21.866      C22.947,77.343,22.947,77.332,22.947,77.332z"></path></g><g><path fill="#000000" d="M20.356,56.385c1.458,4.549,2.601,11.29,2.081,20.855C22.63,67.399,21.61,60.78,20.356,56.385z"></path></g><g><path fill="#000000" d="M33.798,28.767c-6.323,0-11.473,5.14-11.473,11.463s5.15,11.473,11.473,11.473      s11.474-5.15,11.474-11.473S40.121,28.767,33.798,28.767z M21.814,40.23c0-6.599,5.375-11.973,11.983-11.973      c6.609,0,11.983,5.375,11.983,11.973c0,6.609-5.375,11.983-11.983,11.983C27.189,52.213,21.814,46.839,21.814,40.23z"></path></g><g><path fill="#000000" d="M16.563,47.991c0.479,0.388,2.346,2.121,3.937,7.037c-1.785-4.967-3.855-6.935-4.019-7.088      c-0.061-0.061-0.153-0.082-0.234-0.061c-0.071,0.021-0.132,0.041-0.204,0.061c-0.795-32.136,3.203-34.002,3.366-34.063      c0.071-0.021,0.143-0.021,0.204,0.01c5.609,2.804,8.546,6.303,9.179,7.119c7.965-3.845,18.205-3.957,19.357-3.957h0.163      c0.367-0.01,0.734-0.01,1.091-0.01c11.422,0,18.714,3.824,20.091,4.6c2.917-5.273,9.271-7.659,9.546-7.761      c0.122-0.041,0.265,0.01,0.316,0.132c2.916,5.997,2.601,30.943,2.549,33.88c-0.081-0.021-0.173-0.021-0.255-0.021      c-0.061,0-0.122,0.021-0.163,0.061c-0.01,0.01-0.041,0.041-0.092,0.082c0.031-1.836,0.388-27.241-2.396-33.564      c-1.173,0.479-6.711,2.948-9.179,7.669c-0.041,0.062-0.092,0.102-0.163,0.123s-0.143,0.01-0.204-0.031      c-0.071-0.051-7.965-4.936-21.131-4.65h-0.173c-1.152,0-11.433,0.112-19.316,3.998c-0.112,0.051-0.245,0.021-0.316-0.082      c-0.031-0.041-2.866-3.957-9.005-7.067C18.969,14.866,15.828,18.813,16.563,47.991z"></path></g><g><path fill="#000000" d="M16.48,47.94c0.164,0.153,2.234,2.122,4.019,7.088c0.051,0.152,0.102,0.296,0.153,0.448      c1.367,4.437,2.499,11.32,2.295,21.855c0,0,0,0.011,0.01,0.011c-0.01,0.03-0.01,0.071-0.01,0.102      c-0.01,0.071-0.041,0.133-0.092,0.184c-0.01,0.011-0.072,0.062-0.194,0.144c-0.102-0.112-0.153-0.164-0.163-0.174      c-0.041-0.051-0.062-0.112-0.062-0.174c0-0.04,0-0.081,0-0.122c0-0.021,0-0.041,0-0.062c0.521-9.565-0.622-16.307-2.081-20.855      c-0.03-0.112-0.061-0.225-0.102-0.337c-1.805-6.038-4.049-7.689-4.09-7.71c-0.061-0.051-0.102-0.123-0.112-0.204      c0-0.061,0-0.132-0.01-0.194c0.072-0.02,0.133-0.041,0.204-0.061C16.328,47.858,16.419,47.879,16.48,47.94z"></path></g><g><path fill="#000000" d="M10.219,72.498c-0.153,5.028,1.724,6.507,2.223,6.813c3.498-2.651,4.121-6.649,4.13-6.689      c0.01-0.123,0.112-0.204,0.225-0.215c0.132-0.03,0.234,0.062,0.265,0.174c1.285,4.273,2.886,5.171,4.008,5.171      c0.663,0,1.183-0.316,1.367-0.449c0,0.041,0,0.082,0,0.122c0,0.062,0.021,0.123,0.062,0.174c0.01,0.01,0.061,0.062,0.163,0.174      c-0.286,0.183-0.857,0.489-1.591,0.489c-0.602,0-1.326-0.215-2.06-0.897c-0.734-0.684-1.479-1.846-2.142-3.743      c-0.408,1.418-1.499,4.182-4.253,6.201c-0.041,0.03-0.092,0.051-0.153,0.051c-0.031,0-0.061-0.011-0.092-0.021      c-0.112-0.041-2.601-1.111-2.672-6.558c-0.745,1.02-2.315,3.009-4.263,4.671c-0.082,0.041-0.836,0.448-1.581,0.448      c-0.469,0-0.836-0.152-1.091-0.469c-0.398-0.469-0.479-1.254-0.265-2.396c0.163-1,4.1-24.64,13.543-27.608      c0.01,0.062,0.01,0.133,0.01,0.194c0.01,0.082,0.051,0.153,0.112,0.204c0.041,0.021,2.285,1.672,4.09,7.71      c-1.612-4.896-3.56-7.149-4.019-7.639C7.067,51.224,3.039,75.395,2.998,75.64c-0.184,0.959-0.122,1.642,0.153,1.988      c0.153,0.184,0.387,0.275,0.704,0.275c0.612,0,1.285-0.356,1.295-0.367c2.631-2.243,4.579-5.16,4.6-5.19      c0.041-0.071,0.123-0.112,0.214-0.112c0.021,0,0.051,0,0.071,0.01C10.147,72.274,10.219,72.376,10.219,72.498z"></path></g></g><g><g><path fill="#000000" d="M49.279,90.415c-5.539,0-11.096-1.508-16.518-4.482l0.36-0.658c5.311,2.913,10.747,4.391,16.158,4.391      c2.445,0,4.89-0.298,7.264-0.887c3.726-0.918,7.431-2.56,11.012-4.876l0.408,0.629c-3.652,2.363-7.434,4.037-11.24,4.976      C54.29,90.109,51.786,90.415,49.279,90.415z"></path></g><g><path fill="#000000" d="M68.003,84.501l-0.406-0.631c2.677-1.727,5.345-3.865,7.928-6.358c0.074-0.063,0.117-0.106,0.169-0.159      l0.695-0.111l0.017,0.152c0.021,0.16-0.042,0.351-0.181,0.49c-0.071,0.07-0.13,0.128-0.201,0.187      C73.427,80.578,70.721,82.748,68.003,84.501z"></path></g><g><path fill="#000000" d="M75.638,77.27c-0.096-0.724-0.411-3.36-0.451-6.898l0.75-0.008c0.04,3.496,0.351,6.095,0.445,6.809      L75.638,77.27z"></path></g><g><path fill="#000000" d="M75.926,69.255h-0.75c0-0.353,0.009-0.705,0.017-1.072l0.004-0.149l0.75,0.018L75.942,68.2      C75.934,68.562,75.926,68.908,75.926,69.255z"></path></g><g><path fill="#000000" d="M76.158,64.292l-0.746-0.068c0.574-6.329,2.185-11.25,4.788-14.626l0.594,0.458      C78.279,53.316,76.72,58.106,76.158,64.292z"></path></g><g><path fill="#000000" d="M19.895,56.155c-1.77-5.918-3.916-7.49-3.938-7.505c-0.168-0.137-0.255-0.295-0.277-0.47      c-0.003-0.088-0.001-0.137-0.008-0.179c-0.793-31.902,3.152-34.307,3.604-34.476c0.195-0.059,0.36-0.046,0.503,0.026      c5.279,2.639,8.241,5.917,9.119,6.988c8-3.756,18.111-3.866,19.25-3.866h0.163c0.36-0.01,0.731-0.01,1.091-0.01      c10.731,0,17.956,3.406,19.949,4.469c3.048-5.148,9.289-7.508,9.559-7.607c0.326-0.107,0.666,0.042,0.792,0.337      c2.98,6.129,2.628,31.195,2.578,34.033v0.238c0,0.16-0.067,0.315-0.19,0.438l-0.072,0.072c-0.288,0.288-0.567,0.596-0.836,0.914      l-0.572-0.483c0.282-0.334,0.575-0.659,0.879-0.962l0.336,0.194l-0.266-0.265c-0.011,0.012-0.028,0.045-0.028,0.092v-0.245      c0.02-1.125,0.447-27.352-2.466-33.621c-0.837,0.327-6.56,2.702-9.242,7.551l-0.183,0.331l-0.329-0.186      c-1.35-0.76-8.653-4.551-19.908-4.551c-0.37,0.011-0.717,0-1.081,0.01h-0.173c-1.133,0-11.303,0.11-19.194,3.92l-0.273,0.132      l-0.186-0.24c-0.524-0.676-3.413-4.18-8.992-6.984c-0.418,0.297-3.828,3.652-3.085,33.679c0.006,0.021,0.009,0.081,0.01,0.143      c0.461,0.369,2.515,2.276,4.187,7.867L19.895,56.155z"></path></g><g><path fill="#000000" d="M22.812,77.248l-0.75-0.016c0.165-8.382-0.53-15.362-2.066-20.745l0.722-0.205      C22.273,61.736,22.978,68.79,22.812,77.248z"></path></g><g><path fill="#000000" d="M32.688,85.891c-0.87-0.481-1.687-0.97-2.429-1.451c-4.487-2.865-7.345-5.845-7.873-6.413      c-0.089-0.099-0.135-0.146-0.148-0.159c-0.125-0.149-0.176-0.295-0.176-0.443v-0.122h0.75v0.08      c0.03,0.031,0.072,0.076,0.127,0.138c0.514,0.554,3.314,3.472,7.726,6.289c0.73,0.474,1.532,0.952,2.387,1.426L32.688,85.891z"></path></g><g><path fill="#000000" d="M20.142,55.144c-1.535-4.743-3.309-6.451-3.815-6.861l-0.135-0.109L16.188,48      c-0.715-28.403,2.176-33.112,3.08-33.879l0.19-0.162l0.222,0.113c5.697,2.886,8.57,6.432,9.079,7.102      c7.94-3.878,18.237-3.991,19.389-3.991h0.173c12.409-0.267,20.292,4.092,21.25,4.66c2.482-4.77,8.169-7.287,9.285-7.743      l0.338-0.138l0.146,0.334c2.858,6.49,2.447,32.612,2.429,33.721l-0.003,0.152l-0.107,0.107c-0.791,0.792-1.508,1.695-2.13,2.688      l-0.635-0.398c0.623-0.995,1.339-1.906,2.128-2.711c0.035-2.349,0.336-26.23-2.228-32.914c-1.602,0.702-6.422,3.099-8.644,7.35      c-0.112,0.172-0.237,0.265-0.392,0.309c-0.179,0.05-0.361,0.023-0.516-0.079c-0.074-0.048-7.929-4.872-20.915-4.587h-0.182      c-1.138,0-11.343,0.111-19.151,3.959c-0.289,0.132-0.616,0.044-0.789-0.203c-0.29-0.393-2.983-3.903-8.616-6.819      c-0.742,0.976-3.318,6.311-2.659,32.943c0.68,0.601,2.437,2.506,3.923,7.099L20.142,55.144z"></path></g><g><path fill="#000000" d="M77.627,54.921l-0.705-0.254c0.406-1.135,0.889-2.2,1.433-3.168l0.654,0.367      C78.485,52.798,78.021,53.825,77.627,54.921z"></path></g><g><path fill="#000000" d="M74.707,71.562c-0.117-3.917,0.057-9.678,1.555-14.883c0.062-0.218,0.125-0.438,0.198-0.657l0.711,0.236      c-0.069,0.209-0.129,0.418-0.188,0.627c-1.472,5.113-1.642,10.791-1.525,14.653L74.707,71.562z"></path></g><g><path fill="#000000" d="M56.095,89.13l-0.168-0.73c3.796-0.871,7.596-2.519,11.293-4.896c0.214-0.132,0.412-0.261,0.61-0.399      c2.446-1.627,4.894-3.613,7.283-5.91c-0.071-0.554-0.241-2.028-0.335-4.045l0.75-0.035c0.105,2.299,0.313,3.875,0.353,4.167      l0.026,0.189l-0.137,0.132c-2.465,2.384-4.994,4.443-7.518,6.122c-0.203,0.142-0.413,0.278-0.633,0.414      C63.854,86.559,59.975,88.24,56.095,89.13z"></path></g><g><path fill="#000000" d="M49.279,89.905c-5.827,0-11.649-1.686-17.303-5.009l0.38-0.646c7.578,4.454,15.443,5.907,23.25,4.221      l0.158,0.732C53.61,89.669,51.429,89.905,49.279,89.905z"></path></g><g><path fill="#000000" d="M31.603,84.679l-0.225-0.137c-0.24-0.147-0.475-0.291-0.703-0.44c-0.253-0.162-0.5-0.326-0.747-0.49      c-3.92-2.588-6.444-5.156-7.135-5.894h-0.211l-0.01-0.386c0.173-8.962-0.593-16.275-2.278-21.745l0.717-0.221      c1.699,5.515,2.477,12.856,2.314,21.821c0.647,0.693,3.129,3.23,7.019,5.799c0.244,0.162,0.487,0.324,0.74,0.485      c0.226,0.148,0.453,0.287,0.686,0.43l0.226,0.139L31.603,84.679z"></path></g><g><path fill="#000000" d="M12.462,80.247l-0.198-0.035c-0.13-0.047-2.529-0.981-2.896-5.864c-0.816,1.035-2.132,2.573-3.69,3.902      l-0.087,0.057c-0.35,0.18-1.04,0.481-1.736,0.481c-0.593,0-1.058-0.205-1.383-0.608c-0.466-0.548-0.58-1.435-0.342-2.701      c0.164-1.005,4.161-24.867,13.8-27.896l0.379-0.086c0.164,0,0.324,0.065,0.437,0.179c0.225,0.211,2.328,2.276,4.106,7.227      l0.156,0.457c2.009,5.883,2.791,13.287,2.324,22.005l-0.02,0.1c-0.016,0.186-0.084,0.322-0.192,0.431      c-0.049,0.051-0.178,0.141-0.25,0.189c-1.322,0.845-2.884,0.7-4.116-0.445c-0.697-0.649-1.321-1.625-1.863-2.91      c-0.6,1.565-1.784,3.731-4.055,5.396C12.73,80.204,12.6,80.247,12.462,80.247z M10.059,72.165l0.015,1.124      c0.063,4.78,2.032,6.009,2.377,6.188c2.592-1.93,3.653-4.559,4.057-5.96l0.326-1.133l0.389,1.112      c0.581,1.662,1.268,2.871,2.043,3.593c0.569,0.528,1.176,0.797,1.805,0.797c0.592,0,1.083-0.234,1.389-0.431      c0.051-0.033,0.089-0.062,0.115-0.081c0.001-0.027,0.005-0.057,0.011-0.087c0.458-8.605-0.311-15.902-2.288-21.689l-0.154-0.451      c-1.629-4.534-3.498-6.521-3.872-6.888l-0.128,0.042C6.951,51.189,3.031,74.612,2.869,75.608      c-0.192,1.024-0.131,1.727,0.181,2.093c0.387,0.481,1.257,0.423,2.199-0.062c1.954-1.675,3.553-3.753,4.148-4.566L10.059,72.165      z"></path></g><g><path fill="#000000" d="M12.464,79.764l-0.218-0.133c-0.588-0.36-2.459-1.895-2.41-6.753c-0.621,0.877-2.296,3.114-4.443,4.943      c-0.087,0.094-0.879,0.457-1.538,0.457c-0.432,0-0.765-0.138-0.992-0.41c-0.362-0.456-0.439-1.227-0.233-2.299      c0.167-0.999,4.228-24.673,13.496-27.519l0.224-0.069l0.16,0.171c0.557,0.594,2.499,2.912,4.101,7.778      c0.041,0.112,0.075,0.234,0.108,0.356c1.833,5.716,2.539,12.778,2.093,20.974l-0.01,0.179l-0.145,0.166      c-0.419,0.306-3.59,2.388-5.813-4.467c-0.309,1.288-1.305,4.295-4.175,6.471L12.464,79.764z M9.964,71.858l0.232,0.046      c0.213,0.054,0.397,0.302,0.397,0.594c-0.13,4.271,1.241,5.859,1.838,6.345c3.006-2.413,3.699-5.879,3.769-6.274      c0.022-0.272,0.259-0.507,0.561-0.535c0.351-0.003,0.588,0.175,0.663,0.448c0.948,3.153,2.244,4.895,3.646,4.895      c0.437,0,0.804-0.17,1.003-0.285c0.418-8.095-0.279-14.995-2.074-20.592c-0.033-0.119-0.061-0.222-0.097-0.324      c-1.428-4.336-3.103-6.558-3.781-7.333C7.447,51.886,3.408,75.46,3.368,75.7c-0.155,0.81-0.125,1.439,0.077,1.694      c0.023,0.028,0.111,0.134,0.41,0.134c0.435,0,0.95-0.231,1.086-0.305c2.529-2.178,4.416-4.966,4.496-5.085      C9.533,71.971,9.734,71.858,9.964,71.858z"></path></g><g><path fill="#000000" d="M85.729,80.094c-0.158,0-0.271-0.026-0.344-0.052c-1.791-0.302-3.189-3.273-4.007-5.54      c-1.616,3.585-3.313,4.153-3.779,4.242c-0.134,0.058-0.281,0.085-0.447,0.085c-0.627,0-1.278-0.479-1.611-0.763      c-0.093-0.075-0.162-0.148-0.197-0.186c-0.124-0.125-0.188-0.273-0.188-0.426c-0.166-1.425-0.293-2.887-0.376-4.302l-0.009-0.15      c-0.027-0.493-0.055-0.969-0.063-1.446c-0.208-5.66,0.315-10.669,1.556-14.88c0.061-0.226,0.125-0.448,0.198-0.661      c0.141-0.462,0.297-0.92,0.463-1.355c0.402-1.097,0.884-2.16,1.429-3.157c0.176-0.34,0.354-0.646,0.544-0.94      c1.102-1.804,2.071-2.678,2.254-2.835l0.072-0.064c0.175-0.174,0.439-0.223,0.773-0.138      c6.674,0.478,12.396,18.959,13.476,22.659c1.181,7.042-0.911,8.049-1.342,8.18c-0.188,0.037-0.254,0.037-0.333,0.037      c-0.001,0-0.001,0-0.001,0c-1.811,0-3.743-2.128-4.985-3.806C88.02,79.111,86.715,80.094,85.729,80.094z M85.652,79.34      c0.008,0,0.036,0.004,0.077,0.004c0.387,0,1.708-0.416,2.484-5.767l0.139-0.953l0.542,0.796      c0.868,1.272,3.084,4.231,4.901,4.231c0.043,0,0.079,0,0.157-0.015l0,0c-0.011,0,1.894-0.68,0.799-7.249      c-0.646-2.21-6.499-21.663-12.875-22.125c-0.072-0.014-0.13-0.018-0.177-0.019c-0.019,0.017-0.042,0.037-0.07,0.059      c-0.159,0.137-1.05,0.943-2.098,2.657c-0.183,0.284-0.35,0.57-0.518,0.894c-0.531,0.973-0.997,2.002-1.388,3.068      c-0.162,0.425-0.313,0.865-0.453,1.326c-0.073,0.21-0.132,0.415-0.189,0.631c-1.22,4.143-1.732,9.07-1.527,14.656      c0.009,0.475,0.035,0.941,0.063,1.425l0.008,0.149c0.082,1.389,0.207,2.824,0.371,4.266c0.036,0.037,0.073,0.073,0.122,0.113      c0.338,0.289,0.805,0.59,1.132,0.59c0.07,0,0.126-0.011,0.168-0.031l0.115-0.036c0.194-0.027,1.948-0.395,3.63-4.701      l0.383-0.979l0.323,1.001c0.892,2.756,2.349,5.773,3.766,5.975l0.112,0.034C85.648,79.34,85.649,79.34,85.652,79.34z"></path></g><g><path fill="#000000" d="M85.729,79.584l-0.175-0.022c-2.058-0.301-3.711-5.173-4.133-6.529c-1.726,4.697-3.624,5.173-3.97,5.221      c-0.102,0.048-0.194,0.067-0.295,0.067l0,0c-0.604,0-1.361-0.704-1.394-0.734l-0.118-0.111v-0.162      c-0.276-2.46-0.428-4.778-0.459-6.939c-0.011-0.377-0.011-0.757-0.011-1.118c0-0.388,0.009-0.759,0.019-1.128l0.002-0.094      c0.03-1.354,0.103-2.636,0.216-3.812c0.785-8.102,3.333-12.635,4.782-14.616c0.139-0.191,0.278-0.373,0.416-0.534      c0.291-0.371,0.598-0.71,0.876-0.968l0.108-0.1h0.146c6.384,0.139,12.139,18.588,13.228,22.285      c0.25,1.429,0.365,2.633,0.365,3.668c0,2.33-0.574,3.3-0.977,3.693l0.058,0.199l-0.454,0.04      c-0.054,0.004-0.108,0.007-0.164,0.007c-1.987,0-4.263-3.074-5.291-4.639C87.761,78.754,86.452,79.584,85.729,79.584z       M81.436,72.031c0.286,0,0.531,0.188,0.606,0.458c0.719,2.513,2.317,6.139,3.618,6.328l0.069,0.392v-0.375      c0.013,0,1.335-0.166,2.075-5.995c0.021-0.241,0.2-0.458,0.455-0.536l0.158-0.021c0.216,0,0.418,0.11,0.541,0.296      c1.365,2.129,3.43,4.568,4.838,4.568H93.8c0.317-0.271,0.784-1.189,0.784-3.189c0-0.993-0.111-2.155-0.332-3.456      c-2.345-7.95-7.56-21.38-12.367-21.74c-0.221,0.216-0.458,0.486-0.695,0.788c-0.137,0.159-0.263,0.324-0.389,0.498      c-1.404,1.921-3.874,6.324-4.643,14.248c-0.11,1.157-0.182,2.421-0.212,3.757l-0.003,0.095      c-0.009,0.363-0.018,0.728-0.018,1.109c0,0.354,0,0.728,0.011,1.102c0.03,2.128,0.179,4.403,0.44,6.771      c0.298,0.252,0.652,0.442,0.78,0.442c0.021-0.03,0.126-0.063,0.239-0.063c-0.025,0,1.777-0.33,3.44-5.063      C80.941,72.184,81.169,72.031,81.436,72.031z"></path></g><g><path fill="#000000" d="M49.483,90.344c-5.624,0-11.249-1.483-16.719-4.409l-0.088-0.065c-0.722-0.374-1.486-0.818-2.319-1.333      l-0.089-0.074c-0.03-0.026-0.07-0.063-0.106-0.113l-0.08-0.079l-0.002-0.077c-0.056-0.125-0.146-0.349-0.296-0.767      c-0.797-2.206-2.398-7.963-0.045-13.741c2.048-5.032,6.53-8.877,13.321-11.428c0.04-0.014,2.621-0.83,5.935-0.83      c1.92,0,3.701,0.278,5.292,0.826l0,0c0.029,0,8.489,2.193,12.697,9.53c2.53,4.405,3.009,9.695,1.424,15.724      c-0.038,0.163-0.086,0.335-0.135,0.512l-0.04,0.144c-0.016,0.091-0.078,0.202-0.172,0.293l-0.128,0.094      c-0.119,0.102-4.354,3.382-11.216,4.959C54.342,90.063,51.908,90.344,49.483,90.344z M33.118,85.272      c7.667,4.102,15.719,5.306,23.43,3.505c6.702-1.541,10.938-4.822,10.979-4.855l0.022-0.104c0.046-0.168,0.092-0.331,0.13-0.494      c1.535-5.839,1.081-10.939-1.347-15.168c-3.99-6.955-12.169-9.163-12.249-9.183c-1.556-0.532-3.254-0.797-5.09-0.797      c-3.197,0-5.662,0.779-5.686,0.787c-6.571,2.47-10.908,6.173-12.875,11.004c-2.254,5.537-0.711,11.078,0.057,13.203      c0.134,0.372,0.232,0.618,0.276,0.718l0.048,0.051c0.784,0.48,1.522,0.909,2.235,1.293l0.07,0.042L33.118,85.272z"></path></g><g><path fill="#000000" d="M49.483,89.834c-5.899,0-11.788-1.66-17.504-4.936l-0.369-0.215c-0.219-0.124-0.436-0.256-0.655-0.389      l-0.439-0.265l-0.005-0.154c-0.42-0.987-2.963-7.484-0.293-14.008c1.99-4.889,6.369-8.634,13.015-11.132l0,0      c0.001,0,2.503-0.799,5.761-0.799c1.856,0,3.588,0.268,5.148,0.794c0.054,0.013,8.351,2.256,12.402,9.308      c2.528,4.381,2.95,9.707,1.254,15.83l-0.011,0.171l-0.153,0.112c-1.134,0.83-5.315,3.645-11.545,4.979      c-0.108,0.021-0.206,0.037-0.294,0.064C53.656,89.622,51.545,89.834,49.483,89.834z M31.192,83.563l0.152,0.091      c0.213,0.13,0.424,0.257,0.64,0.38l0.371,0.216c5.598,3.208,11.362,4.835,17.128,4.835c2.013,0,4.074-0.207,6.128-0.615      c0.078-0.025,0.205-0.05,0.332-0.073c5.898-1.264,9.909-3.884,11.145-4.774c1.626-5.901,1.224-11.019-1.194-15.208      c-3.919-6.821-11.885-8.942-11.964-8.963c-1.511-0.509-3.162-0.763-4.936-0.763c-3.079,0-5.484,0.746-5.507,0.754      c-6.432,2.418-10.666,6.022-12.574,10.71C28.371,76.361,30.769,82.56,31.192,83.563z"></path></g><g><path fill="#000000" d="M49.534,52.731c-0.256,0-0.478-0.141-0.578-0.367l-3.351-6.995c-0.127-0.282-0.034-0.621,0.214-0.795      c1.109-0.724,2.31-1.088,3.582-1.088c2.161,0,3.76,1.037,3.827,1.082c0.258,0.182,0.352,0.52,0.228,0.794l-3.359,7.014      C50.002,52.588,49.779,52.731,49.534,52.731z M46.328,45.139l3.202,6.685l3.201-6.684c-0.323-0.19-1.646-0.905-3.329-0.905      C48.312,44.236,47.278,44.54,46.328,45.139z"></path></g><g><path fill="#000000" d="M49.535,52.378l-3.514-7.324l0.288-0.177c0.953-0.585,1.994-0.881,3.093-0.881      c1.4,0,2.583,0.473,3.328,0.87l0.316,0.169L49.535,52.378z M46.994,45.349l2.54,5.293l2.522-5.274      c-0.606-0.282-1.562-0.622-2.654-0.622C48.555,44.746,47.746,44.948,46.994,45.349z"></path></g><g><path fill="#000000" d="M65.077,52.588c-6.814,0-12.358-5.544-12.358-12.358c0-6.809,5.544-12.348,12.358-12.348      c6.809,0,12.348,5.54,12.348,12.348C77.425,47.044,71.886,52.588,65.077,52.588z M65.077,28.632      c-6.401,0-11.608,5.203-11.608,11.598c0,6.4,5.207,11.608,11.608,11.608c6.395,0,11.598-5.208,11.598-11.608      C76.675,33.835,71.472,28.632,65.077,28.632z"></path></g><g><path fill="#000000" d="M65.077,52.078c-6.533,0-11.849-5.315-11.849-11.848c0-6.528,5.315-11.838,11.849-11.838      c6.527,0,11.838,5.311,11.838,11.838C76.915,46.763,71.604,52.078,65.077,52.078z M65.077,29.142      c-6.12,0-11.099,4.974-11.099,11.088c0,6.12,4.979,11.098,11.099,11.098c6.114,0,11.088-4.979,11.088-11.098      C76.165,34.116,71.191,29.142,65.077,29.142z"></path></g><g><path fill="#000000" d="M33.798,52.588c-6.814,0-12.358-5.544-12.358-12.358c0-6.809,5.544-12.348,12.358-12.348      s12.358,5.54,12.358,12.348C46.156,47.044,40.612,52.588,33.798,52.588z M33.798,28.632c-6.401,0-11.608,5.203-11.608,11.598      c0,6.4,5.208,11.608,11.608,11.608S45.406,46.63,45.406,40.23C45.406,33.835,40.199,28.632,33.798,28.632z"></path></g><g><path fill="#000000" d="M33.798,52.078c-6.533,0-11.848-5.315-11.848-11.848c0-6.528,5.315-11.838,11.848-11.838      s11.849,5.311,11.849,11.838C45.646,46.763,40.331,52.078,33.798,52.078z M33.798,29.142c-6.12,0-11.098,4.974-11.098,11.088      c0,6.12,4.979,11.098,11.098,11.098S44.896,46.35,44.896,40.23C44.896,34.116,39.917,29.142,33.798,29.142z"></path></g><g><path fill="#000000" d="M35.175,48.754c-4.402,0-7.983-3.476-7.983-7.749c0-4.261,3.582-7.728,7.983-7.728      c4.407,0,7.993,3.467,7.993,7.728C43.168,45.278,39.582,48.754,35.175,48.754z M35.175,34.027c-3.988,0-7.233,3.13-7.233,6.978      c0,3.859,3.245,6.999,7.233,6.999c3.994,0,7.243-3.14,7.243-6.999C42.418,37.157,39.168,34.027,35.175,34.027z"></path></g><g><path fill="#000000" d="M35.175,48.244c-4.121,0-7.473-3.247-7.473-7.239c0-3.98,3.353-7.218,7.473-7.218      c4.126,0,7.483,3.238,7.483,7.218C42.658,44.997,39.301,48.244,35.175,48.244z M35.175,34.537c-3.707,0-6.723,2.902-6.723,6.468      c0,3.578,3.016,6.489,6.723,6.489c3.713,0,6.733-2.911,6.733-6.489C41.908,37.438,38.888,34.537,35.175,34.537z"></path></g><g><path fill="#000000" d="M62.629,48.754c-4.401,0-7.982-3.476-7.982-7.749c0-4.261,3.581-7.728,7.982-7.728      c4.408,0,7.994,3.467,7.994,7.728C70.623,45.278,67.037,48.754,62.629,48.754z M62.629,34.027c-3.988,0-7.232,3.13-7.232,6.978      c0,3.859,3.244,6.999,7.232,6.999c3.994,0,7.244-3.14,7.244-6.999C69.873,37.157,66.623,34.027,62.629,34.027z"></path></g><g><path fill="#000000" d="M62.629,48.244c-4.12,0-7.473-3.247-7.473-7.239c0-3.98,3.353-7.218,7.473-7.218      c4.126,0,7.483,3.238,7.483,7.218C70.112,44.997,66.755,48.244,62.629,48.244z M62.629,34.537c-3.707,0-6.723,2.902-6.723,6.468      c0,3.578,3.016,6.489,6.723,6.489c3.713,0,6.733-2.911,6.733-6.489C69.362,37.438,66.342,34.537,62.629,34.537z"></path></g><g><path fill="#000000" d="M32.9,39.769c-1.287,0-2.333-0.982-2.333-2.19c0-1.213,1.046-2.2,2.333-2.2s2.333,0.987,2.333,2.2      C35.233,38.786,34.187,39.769,32.9,39.769z M32.9,36.128c-0.873,0-1.583,0.65-1.583,1.45c0,0.794,0.71,1.44,1.583,1.44      s1.583-0.646,1.583-1.44C34.483,36.778,33.773,36.128,32.9,36.128z"></path></g><g><path fill="#000000" d="M32.9,39.259c-1.005,0-1.823-0.754-1.823-1.681c0-0.932,0.818-1.69,1.823-1.69s1.823,0.758,1.823,1.69      C34.724,38.505,33.906,39.259,32.9,39.259z M32.9,36.638c-0.592,0-1.073,0.422-1.073,0.94c0,0.504,0.492,0.931,1.073,0.931      s1.073-0.426,1.073-0.931C33.974,37.06,33.492,36.638,32.9,36.638z"></path></g><g><path fill="#000000" d="M60.478,40.217c-1.281,0-2.323-0.987-2.323-2.2c0-1.208,1.042-2.19,2.323-2.19      c1.286,0,2.333,0.982,2.333,2.19C62.811,39.23,61.764,40.217,60.478,40.217z M60.478,36.577c-0.867,0-1.573,0.646-1.573,1.44      c0,0.8,0.706,1.45,1.573,1.45c0.873,0,1.583-0.65,1.583-1.45C62.061,37.223,61.351,36.577,60.478,36.577z"></path></g><g><path fill="#000000" d="M60.478,39.708c-1,0-1.813-0.758-1.813-1.69c0-0.927,0.813-1.681,1.813-1.681      c1.005,0,1.823,0.754,1.823,1.681C62.301,38.949,61.482,39.708,60.478,39.708z M60.478,37.086c-0.586,0-1.063,0.417-1.063,0.931      c0,0.519,0.478,0.94,1.063,0.94c0.592,0,1.073-0.422,1.073-0.94C61.551,37.513,61.06,37.086,60.478,37.086z"></path></g><g><path fill="#000000" d="M37.398,75.198c-1.377,0-2.757-0.883-4.101-2.623c-0.211-0.291-0.151-0.687,0.127-0.89      c0.23-0.189,0.667-0.152,0.878,0.128c1.143,1.48,2.283,2.212,3.274,2.117c1.487-0.143,2.457-2.002,2.466-2.021      c0.135-0.294,0.524-0.44,0.839-0.292c0.325,0.188,0.439,0.556,0.29,0.854c-0.324,0.605-1.494,2.521-3.471,2.714      C37.597,75.197,37.503,75.198,37.398,75.198z"></path></g><g><path fill="#000000" d="M60.671,75.198c-1.378,0-2.757-0.883-4.101-2.623c-0.104-0.142-0.145-0.306-0.122-0.471      c0.023-0.17,0.111-0.319,0.249-0.419c0.27-0.194,0.66-0.14,0.868,0.116c1.169,1.513,2.264,2.223,3.294,2.129      c1.468-0.141,2.417-1.945,2.456-2.021c0.167-0.311,0.556-0.433,0.85-0.286c0.313,0.183,0.427,0.55,0.279,0.849      c-0.324,0.606-1.495,2.522-3.472,2.715C60.885,75.197,60.778,75.198,60.671,75.198z"></path></g><g><path fill="#000000" d="M49.137,75.198c-1.377,0-2.757-0.883-4.101-2.623c-0.211-0.291-0.152-0.686,0.126-0.89      c0.23-0.189,0.667-0.152,0.878,0.128c1.143,1.48,2.277,2.216,3.274,2.117c1.501-0.143,2.456-1.999,2.464-2.018      c0.138-0.298,0.54-0.441,0.842-0.29c0.32,0.172,0.442,0.543,0.288,0.851c-0.323,0.604-1.493,2.521-3.47,2.713      C49.336,75.197,49.23,75.198,49.137,75.198z"></path></g><g><path fill="#000000" d="M43.599,83.112c-1.373,0-2.752-0.887-4.101-2.634c-0.208-0.284-0.158-0.657,0.11-0.876      c0.311-0.229,0.703-0.146,0.897,0.12c1.154,1.494,2.262,2.233,3.285,2.121c1.48-0.15,2.442-2.01,2.451-2.028      c0.166-0.308,0.554-0.43,0.851-0.278c0.307,0.154,0.433,0.53,0.279,0.839c-0.003,0.009-1.203,2.506-3.462,2.715      C43.809,83.102,43.704,83.112,43.599,83.112z"></path></g><g><path fill="#000000" d="M54.919,83.112c-1.377,0-2.753-0.887-4.092-2.636c-0.214-0.262-0.173-0.65,0.102-0.874      c0.309-0.228,0.702-0.148,0.897,0.119c1.17,1.503,2.265,2.221,3.281,2.123c1.499-0.152,2.455-2.009,2.464-2.027      c0.137-0.296,0.531-0.438,0.841-0.28c0.15,0.069,0.271,0.206,0.324,0.372c0.051,0.162,0.03,0.34-0.056,0.488l0,0      c0.002,0-1.205,2.475-3.45,2.693C55.129,83.102,55.023,83.112,54.919,83.112z"></path></g></g></g></g></svg>