<svg xmlns="http://www.w3.org/2000/svg" xmlns:xlink="http://www.w3.org/1999/xlink" version="1.1" x="0px" y="0px" viewBox="0 0 100 100" enable-background="new 0 0 100 100" xml:space="preserve"><path fill="#000000" stroke="#231F20" stroke-width="2" d="M3.5,0.7"></path><path fill="#000000" stroke="#211C1B" stroke-width="2" stroke-miterlimit="10" d="M80.2,92.7"></path><g><path fill="#000000" d="M86.9,7.1l-1.4-1.3c-0.3-0.3-0.6-0.4-1-0.4c-0.5,0-1,0.3-1.3,0.8l-1,2.4c-0.1-0.1-0.2-0.1-0.3-0.2   c-1.7-1-3.5-1.4-5.3-1c-2.1,0.4-3.6,1.8-4.7,3c-2.3,2.5-5,4.7-8.1,6.5c-1.9,1.1-3.9,2-5.9,2.9l0-2.2l0-0.1   c-0.8-2.2-3.4-3.4-5.6-2.5l-4.6,1.7c-1.5,0.6-2.5,1.8-2.7,3.4c-1.5,0.7-2.4,2.2-2.5,3.8c-4.1,0.2-8.6-0.4-13.2-1.7   c-1.6-0.5-3.2-1.1-4.8-1.7c-1.3-0.5-2.7-0.5-4.2-0.2l-0.2,0.1c-0.2,0-0.4,0.1-0.5,0.2c-0.1,0-0.2,0.1-0.3,0.2   c-1.6,0.6-2.7,1.8-3.5,3.4L14,22.6c-0.2-0.2-0.5-0.2-0.8-0.2c-0.6,0-1.2,0.4-1.4,1.1l-0.5,1.8c-0.1,0.4,0,0.9,0.2,1.3   c0.3,0.4,0.7,0.6,1.1,0.6l2.4-0.3c-0.1,1.6,0.4,3.2,1.4,4.6c0.9,1.2,2.2,2.1,4,2.8c8.8,3.1,16.3,3.9,22.1,3.9c2,0,3.7-0.1,5.2-0.3   l1,1.3c0.1,0.1,0.1,0.2,0.1,0.3l0.1,2.8l0,0.2c0.6,1.7,2.3,2.8,4.1,2.8c0.5,0,1-0.1,1.5-0.3l0.5-0.2l8.1,21.3   c-0.4,0.2-0.6,0.5-0.8,0.8c-0.2,0.4-0.2,0.9,0,1.3L72.4,93c0.4,1.1,1.5,1.7,2.5,1.7c0.3,0,0.5,0,0.8-0.1l5.6-1.8   c0.5-0.2,0.9-0.5,1.1-0.9c0.5-1.1,0-2.6-0.5-3.7l-0.1-0.2l-0.7,0.2l0.7-0.2l-9.7-25.6c-0.2-0.4-0.5-0.8-0.9-1   c-0.4-0.2-0.8-0.2-1.1-0.1l-8-21.3c0,0,0-0.1,0-0.1c2-1,3-3.3,2.2-5.5l-0.8-1.1c5.3-2.4,14.4-7.4,20.4-14.9c1.4-1.8,1.7-4,0.9-6.5   c-0.1-0.5-0.4-1-0.7-1.4l2.5-1.1c0.4-0.2,0.7-0.6,0.8-1.1C87.4,7.8,87.2,7.4,86.9,7.1z M15.3,25.4l-2.6,0.3h0l0-0.1l0.5-1.9   L15.3,25.4C15.3,25.4,15.3,25.4,15.3,25.4z M48.2,17.9l4.6-1.7c1.5-0.6,3.2,0.2,3.8,1.6l0,2.4l-1.1,0.4c-0.7-1.7-2.3-2.8-4-2.8   c-0.5,0-1,0.1-1.5,0.3l-3.3,1.2C46.9,18.7,47.5,18.2,48.2,17.9z M21,32.9c-1.5-0.5-2.6-1.3-3.4-2.3c-1.2-1.7-1.5-3.5-0.8-5.4   c0.6-1.6,1.6-2.7,3-3.2c0.1,0,0.2-0.1,0.2-0.1c0.1,0,0.3-0.1,0.5-0.1l0.2-0.1c1.2-0.3,2.3-0.3,3.4,0.1c1.6,0.6,3.2,1.2,4.8,1.7   c4.7,1.4,9.5,2,13.8,1.8c0,0.1,0,0.2,0.1,0.3l0,0.1l1.9,2.2c0.1,0.1,0.1,0.2,0.1,0.3l0,2.4c0,0.4,0.1,0.7,0.3,1l1.4,2   c0,0.1,0.1,0.1,0.1,0.2l0.3,2.5c0,0.1,0,0.2,0.1,0.2C41.1,37,32,36.7,21,32.9z M54.3,43.7c-0.3,0.1-0.7,0.2-1,0.2   c-1.2,0-2.3-0.7-2.7-1.8l-0.1-2.7c0-0.4-0.2-0.7-0.4-1l-1.5-1.9c-0.1-0.1-0.1-0.1-0.1-0.2L48,33.7c0-0.3-0.1-0.6-0.3-0.8l-1.4-2   c-0.1-0.1-0.1-0.2-0.1-0.2l0-2.4c0-0.4-0.2-0.8-0.4-1.2l-1.7-2c-0.5-1.5,0.3-3.1,1.8-3.7l4.6-1.7c0.3-0.1,0.7-0.2,1-0.2   c1.2,0,2.3,0.7,2.7,1.8l0,2.7c0,0.4,0.2,0.8,0.4,1.2l1.6,1.9c0.1,0.1,0.1,0.2,0.1,0.2l0.3,2.5c0,0.3,0.1,0.6,0.3,0.8l1.4,2.1   c0,0.1,0.1,0.1,0.1,0.2l0.1,2.5c0,0.4,0.2,0.7,0.4,1l1.7,2.1c0.2,0.7,0.2,1.5-0.1,2.2c-0.3,0.7-0.9,1.3-1.7,1.6L54.3,43.7z    M56.6,44.3l1.8-0.7L66,63.8l0.4,0.9l-1.9,0.7L56.6,44.3z M75.4,93.2c-0.7,0.2-1.4-0.1-1.6-0.8l-9.9-24.7c0-0.1,0-0.2,0-0.3   c0,0,0.1-0.1,0.2-0.2l4.1-1.5c0,0,0.1,0,0.1,0c0.1,0,0.3,0.1,0.3,0.2l9.7,25.6l0,0.1c0.1,0.2,0.2,0.4,0.3,0.5L75.4,93.2z    M70.5,62.6c0.1,0,0.2,0,0.3,0c0,0,0.1,0.1,0.2,0.2l9.7,25.6l0,0l0.1,0.2c0.3,0.8,0.8,2.1,0.5,2.7c0,0.1-0.1,0.1-0.3,0.2   c-1.1,0.3-1.2,0.2-1.5-0.4l-9.7-25.6c-0.2-0.4-0.5-0.8-0.9-1c-0.3-0.2-0.7-0.2-1-0.1l-0.3-0.7L70.5,62.6z M68.8,61.7L67,62.4   l-7.4-19.3c0.7-0.3,1.2-0.7,1.7-1.3L68.8,61.7z M62.1,38.2c0-0.2-0.1-0.4-0.2-0.6l-1.8-2.4C60,35.2,60,35.1,60,35l0-0.4l2.2-0.8   l0.9,1.1C63.5,36.2,63.1,37.5,62.1,38.2z M82.8,17.6c-6,7.5-15.4,12.5-20.3,14.7l-2.5,0.9l0-0.6c0-0.3-0.1-0.7-0.3-1l-1.4-2.1   c0-0.1-0.1-0.1-0.1-0.2l-0.3-2.5c0-0.4-0.2-0.7-0.4-1L55.7,24c-0.1-0.1-0.1-0.2-0.1-0.3l0-1.7l2.2-0.7c2.3-0.9,4.6-2,6.7-3.2   c3.2-1.8,6-4.1,8.4-6.7c1-1.1,2.2-2.3,4-2.6c1.5-0.3,2.9,0,4.3,0.8c0.5,0.3,0.9,0.7,1.3,1.2c0.4,0.6,0.7,1.1,0.9,1.6   C84.1,14.4,83.9,16.1,82.8,17.6z M83.5,9.2l1.1-2.4L86,8.1L83.5,9.2z"></path><path fill="#000000" d="M49.9,24.9c-0.4,0-0.7,0.2-0.8,0.6l-0.7,7c0,0.4,0.2,0.7,0.6,0.8c0,0,0,0,0.1,0c0.4,0,0.7-0.3,0.7-0.6   l0.7-7C50.5,25.3,50.3,24.9,49.9,24.9z"></path><path fill="#000000" d="M54.9,29c-0.4,0-0.7,0.2-0.8,0.6l-0.7,7c0,0.4,0.2,0.7,0.6,0.8c0,0,0,0,0.1,0c0.4,0,0.7-0.3,0.7-0.6l0.7-7   C55.6,29.4,55.3,29.1,54.9,29z"></path><path fill="#000000" d="M52.7,23.8c-0.4,0-0.7,0.2-0.8,0.6l-1.3,12.7c0,0.4,0.2,0.7,0.6,0.8c0,0,0,0,0.1,0c0.4,0,0.7-0.3,0.7-0.6   l1.3-12.7C53.3,24.2,53.1,23.9,52.7,23.8z"></path></g><g><path fill="#000000" d="M204.2,88.5l-0.1-0.3l-0.9,0.3l0.9-0.4l-13.9-36.9c-0.2-0.6-0.7-1.1-1.3-1.4c-0.5-0.2-1.1-0.3-1.6-0.1   l-11.5-30.6c0-0.1,0-0.1,0-0.2c2.9-1.4,4.3-4.8,3.2-7.9l-2.7-3.4c-0.1-0.1-0.1-0.2-0.1-0.4l-0.2-3.6c0-0.5-0.2-1-0.5-1.4l-2.1-3   c-0.1-0.1-0.1-0.2-0.1-0.3l-0.4-3.5c-0.1-0.5-0.3-1-0.6-1.4l-2.3-2.7c-0.1-0.1-0.2-0.3-0.2-0.4l-0.1-4.2l-0.1-0.2   c-0.6-1.6-1.8-2.8-3.3-3.5c-1.5-0.7-3.2-0.7-4.8-0.2l-6.7,2.5c-2.1,0.8-3.6,2.7-4,4.9c-1.3,0.6-2.4,1.7-3,3   c-0.7,1.5-0.7,3.2-0.2,4.8l0.1,0.2l2.7,3.2c0.1,0.1,0.2,0.3,0.2,0.4l0,3.5c0,0.5,0.2,1,0.5,1.5l2,2.9c0.1,0.1,0.1,0.2,0.1,0.3   l0.4,3.6c0.1,0.5,0.2,1,0.6,1.3l2.2,2.8c0.1,0.1,0.1,0.2,0.1,0.4l0.2,4l0.1,0.3c0.9,2.4,3.3,4.1,5.9,4.1c0.8,0,1.5-0.1,2.2-0.4   l0.7-0.3l11.6,30.7c-0.5,0.3-0.9,0.7-1.2,1.2c-0.3,0.6-0.3,1.3-0.1,1.9l14.3,35.5c0.6,1.5,2.1,2.5,3.7,2.5c0.4,0,0.8-0.1,1.2-0.2   l8-2.5c0.7-0.2,1.3-0.7,1.6-1.3C205.6,92.4,204.9,90.2,204.2,88.5z M182.8,51.4l-10.6-27.8c0.9-0.4,1.8-1.1,2.4-1.9l10.8,28.7   L182.8,51.4z M155.6-12.5l6.7-2.5c1.1-0.4,2.2-0.4,3.3,0.1c1,0.4,1.8,1.2,2.2,2.2l0,3.8c0,0.6,0.2,1.2,0.6,1.7l2.3,2.7   c0.1,0.1,0.1,0.2,0.2,0.3l0.4,3.5c0,0.4,0.2,0.8,0.5,1.2l2.1,3c0.1,0.1,0.1,0.2,0.1,0.3l0.2,3.6c0,0.6,0.2,1.1,0.6,1.5l2.4,3   c0.6,1.7,0,3.6-1.4,4.7c-0.1-0.3-0.1-0.6-0.3-0.9l-2.7-3.4c-0.1-0.1-0.1-0.2-0.1-0.4l-0.2-3.6c0-0.5-0.2-1-0.5-1.4l-2.1-3   c-0.1-0.1-0.1-0.2-0.1-0.3l-0.4-3.5c-0.1-0.5-0.3-1-0.6-1.4l-2.3-2.7c-0.1-0.1-0.2-0.3-0.2-0.4l-0.1-4.2l-0.1-0.2   c-0.9-2.4-3.3-4.1-5.9-4.1c-0.8,0-1.5,0.1-2.2,0.4l-4.8,1.8C153.8-11.4,154.6-12.1,155.6-12.5z M164.4,24.5c-0.5,0.2-1,0.3-1.5,0.3   c-1.7,0-3.3-1-3.9-2.6l-0.2-3.9c0-0.5-0.2-1.1-0.6-1.5L156,14c-0.1-0.1-0.1-0.2-0.1-0.3l-0.4-3.6c0-0.4-0.2-0.9-0.5-1.2l-2-2.9   c-0.1-0.1-0.1-0.2-0.1-0.4l0-3.5c0-0.6-0.2-1.2-0.6-1.7l-2.5-2.9c-0.3-1-0.3-2.1,0.2-3.1c0.5-1,1.3-1.8,2.4-2.2l6.7-2.5   c0.5-0.2,1-0.3,1.5-0.3c1.7,0,3.3,1,3.9,2.6l0,3.8c0,0.6,0.2,1.2,0.6,1.7l2.3,2.7c0.1,0.1,0.1,0.2,0.2,0.3l0.4,3.5   c0,0.4,0.2,0.9,0.5,1.2l2.1,3c0.1,0.1,0.1,0.2,0.1,0.3l0.2,3.6c0,0.6,0.2,1.1,0.6,1.5l2.4,3c0.3,1,0.3,2.1-0.2,3.1   c-0.5,1-1.3,1.8-2.4,2.2L164.4,24.5z M170.3,24.4l11,29l0.6,1.3l-2.7,1l-11.5-30.3L170.3,24.4z M194.7,95.8c-1,0.3-2-0.2-2.4-1.1   l-14.3-35.5c-0.1-0.2,0-0.3,0-0.4c0-0.1,0.1-0.2,0.3-0.3l5.8-2.2c0.1,0,0.1,0,0.2,0c0.1,0,0.2,0,0.2,0c0.1,0,0.2,0.1,0.3,0.3   l13.9,36.9l0,0.1c0.1,0.3,0.3,0.5,0.5,0.8L194.7,95.8z M203.1,93c0,0.1-0.1,0.2-0.4,0.3c-1.5,0.5-1.7,0.3-2.1-0.5l-13.9-36.8   c-0.2-0.6-0.7-1.1-1.3-1.4c-0.5-0.2-1-0.3-1.5-0.2l-0.5-1l4.3-1.6c0.2-0.1,0.3,0,0.4,0c0.1,0,0.2,0.1,0.3,0.3l13.9,36.9l0,0   l0.1,0.3C202.8,90.3,203.5,92.2,203.1,93z"></path><path fill="#000000" d="M158.1-2.5c-0.6-0.1-1,0.3-1.1,0.9l-1,10c-0.1,0.5,0.3,1,0.9,1.1c0,0,0.1,0,0.1,0c0.5,0,0.9-0.4,1-0.9l1-10   C159-1.9,158.6-2.4,158.1-2.5z"></path><path fill="#000000" d="M165.3,3.5c-0.6-0.1-1,0.3-1.1,0.9l-1,10c-0.1,0.5,0.3,1,0.9,1.1c0,0,0.1,0,0.1,0c0.5,0,0.9-0.4,1-0.9l1-10   C166.3,4,165.9,3.5,165.3,3.5z"></path><path fill="#000000" d="M162.1-4c-0.6-0.1-1,0.3-1.1,0.9l-1.9,18.3c-0.1,0.5,0.3,1,0.9,1.1c0,0,0.1,0,0.1,0c0.5,0,0.9-0.4,1-0.9   L163-2.9C163.1-3.5,162.7-4,162.1-4z"></path></g><path fill="#000000" stroke="#211C1B" stroke-width="2" stroke-miterlimit="10" d="M80.6,99.5"></path></svg>