<svg xmlns="http://www.w3.org/2000/svg" xmlns:xlink="http://www.w3.org/1999/xlink" version="1.1" x="0px" y="0px" viewBox="0 0 100 100" enable-background="new 0 0 100 100" xml:space="preserve"><path d="M85.271,27.256c-5.771,0.797-12.244,1.38-19.242,1.741l0.373-1.708c0.049-0.222-0.006-0.454-0.148-0.63  s-0.357-0.28-0.584-0.28h-3.457c-0.414,0-0.75,0.336-0.75,0.75v2.066c-7.523,0.269-15.403,0.269-22.927,0v-2.066  c0-0.414-0.336-0.75-0.75-0.75H34.33c-0.228,0-0.442,0.103-0.584,0.28c-0.143,0.177-0.197,0.408-0.149,0.63l0.373,1.708  c-6.998-0.361-13.471-0.944-19.241-1.741c-0.412-0.054-0.789,0.23-0.846,0.641c-0.057,0.41,0.23,0.789,0.641,0.846  c5.925,0.818,12.579,1.414,19.778,1.774l0.527,2.415h-4.507c-0.414,0-0.75,0.336-0.75,0.75v20.543l-7.392,7.392  c-0.047,0.046-0.084,0.097-0.115,0.15c-2.245,2.572-2.335,6.314-0.338,8.98c0.03,0.039,0.059,0.079,0.09,0.119  c0.178,0.229,0.367,0.451,0.577,0.661c1.35,1.35,3.144,2.093,5.052,2.093c1.702,0,3.336-0.6,4.628-1.694  c0.091-0.037,0.175-0.092,0.248-0.165l9.495-9.494c1.355-1.357,2.102-3.162,2.1-5.08V33.682c0-0.414-0.336-0.75-0.75-0.75h-4.631  v-2.236c3.763,0.133,7.61,0.208,11.464,0.208c3.853,0,7.7-0.074,11.463-0.208v2.236h-4.636c-0.414,0-0.75,0.336-0.75,0.75v20.543  l-7.098,7.106c-0.052,0.039-0.05,0.03-0.09,0.081l-0.205,0.205c-0.045,0.045-0.083,0.095-0.113,0.147  c-2.246,2.572-2.336,6.315-0.338,8.982c0.029,0.039,0.059,0.079,0.088,0.119c0.18,0.229,0.368,0.451,0.578,0.661  c1.35,1.35,3.144,2.093,5.053,2.093c1.701,0,3.334-0.6,4.627-1.694c0.09-0.037,0.175-0.092,0.248-0.165l9.494-9.494  c1.357-1.357,2.103-3.162,2.101-5.08V33.682c0-0.414-0.336-0.75-0.75-0.75h-4.501l0.526-2.415  c7.199-0.361,13.854-0.957,19.779-1.774c0.41-0.057,0.697-0.436,0.641-0.846S85.687,27.207,85.271,27.256z M39.206,34.432v2.333  h-1.711v-2.333H39.206z M34.283,36.766v-2.333h1.712v2.333H34.283z M31.072,36.766v-2.333h1.711v2.333H31.072z M28.489,71.997  c-0.355,0.067-0.717,0.101-1.078,0.101c-1.5,0-2.904-0.579-3.956-1.63c-0.237-0.237-0.438-0.495-0.626-0.76  c-0.043-0.062-0.087-0.124-0.127-0.187c-0.165-0.256-0.309-0.521-0.428-0.794c-0.037-0.084-0.063-0.171-0.096-0.257  c-0.07-0.188-0.129-0.379-0.179-0.571c-0.034-0.136-0.073-0.27-0.097-0.407c-0.004-0.024-0.004-0.049-0.009-0.074  c-0.104-0.646-0.099-1.314,0.03-1.984c1.816-0.325,3.697,0.259,5.001,1.562C28.233,68.302,28.812,70.185,28.489,71.997z   M31.437,70.527c-0.064,0.03-0.124,0.07-0.179,0.12c-0.366,0.333-0.78,0.593-1.212,0.817c0.131-2.035-0.596-4.067-2.06-5.53  c-1.349-1.349-3.144-2.091-5.054-2.091c-0.16,0-0.317,0.02-0.476,0.03c0.222-0.426,0.479-0.839,0.817-1.21  c0.025-0.028,0.049-0.058,0.069-0.088l7.509-7.51c0.141-0.141,0.22-0.331,0.22-0.53V38.266h11.345v14.017  c-1.767,0.094-3.435,0.815-4.695,2.076c-2.75,2.751-2.785,7.198-0.115,9.998L31.437,70.527z M42.417,57.188  c0.002,1.518-0.588,2.944-1.661,4.019l-2.093,2.094c-2.086-2.216-2.047-5.715,0.119-7.882c0.979-0.979,2.258-1.553,3.635-1.639  V57.188z M42.417,36.766h-1.711v-2.333h1.711V36.766z M36.364,32.932l-1.104-5.053h1.775v5.053H36.364z M65.711,34.432v2.333H64  v-2.333H65.711z M60.788,36.766v-2.333H62.5v2.333H60.788z M57.577,36.766v-2.333h1.711v2.333H57.577z M54.994,71.997  c-0.355,0.067-0.717,0.101-1.077,0.101h-0.001c-1.5,0-2.904-0.579-3.956-1.63c-0.237-0.237-0.439-0.495-0.625-0.761  c-0.044-0.062-0.088-0.123-0.128-0.186c-0.165-0.256-0.309-0.521-0.428-0.794c-0.036-0.085-0.063-0.173-0.096-0.259  c-0.071-0.186-0.128-0.376-0.178-0.567c-0.035-0.137-0.073-0.272-0.098-0.411c-0.001-0.007-0.001-0.014-0.003-0.021  c-0.111-0.661-0.107-1.349,0.025-2.036c1.819-0.325,3.697,0.259,5,1.562C54.737,68.302,55.316,70.185,54.994,71.997z M57.94,70.527  c-0.063,0.03-0.123,0.07-0.178,0.12c-0.366,0.333-0.78,0.593-1.212,0.817c0.131-2.035-0.597-4.067-2.06-5.53  c-1.348-1.349-3.143-2.091-5.054-2.091c-0.159,0-0.317,0.02-0.477,0.03c0.222-0.426,0.48-0.838,0.818-1.21  c0.027-0.03,0.053-0.062,0.074-0.097l0.06-0.062c0.021-0.018,0.041-0.036,0.057-0.052l7.388-7.388c0.141-0.141,0.22-0.331,0.22-0.53  V38.266h11.345V52.28c-1.77,0.09-3.436,0.817-4.695,2.078c-2.75,2.751-2.784,7.198-0.115,9.998L57.94,70.527z M68.922,57.188  c0.002,1.518-0.588,2.944-1.661,4.019l-2.094,2.094c-2.086-2.216-2.046-5.715,0.12-7.882c0.979-0.979,2.258-1.553,3.635-1.639  V57.188z M68.922,36.766h-1.711v-2.333h1.711V36.766z M62.963,32.932v-5.053h1.775l-1.103,5.053H62.963z"></path></svg>